<svg width="16" height="16" viewBox="0 0 16 16" fill="none" xmlns="http://www.w3.org/2000/svg">
<g clip-path="url(#clip0_568_63923)">
<path d="M7.99997 0C3.58878 0 0 3.58878 0 7.99997C0 12.4112 3.58878 15.9999 7.99997 15.9999C12.4112 15.9999 15.9999 12.4112 15.9999 7.99997C15.9999 3.58875 12.4112 0 7.99997 0ZM7.99997 14.9999C4.14019 14.9999 1 11.8597 1 7.99997C1 4.14019 4.14019 1 7.99997 1C11.8597 1 14.9999 4.14016 14.9999 7.99997C14.9999 11.8597 11.8597 14.9999 7.99997 14.9999ZM12.4375 7.99997C12.4375 8.27612 12.2136 8.49997 11.9375 8.49997H8.49997V11.9375C8.49997 12.2136 8.27609 12.4375 7.99997 12.4375C7.72384 12.4375 7.49997 12.2136 7.49997 11.9375V8.49997H4.06247C3.78634 8.49997 3.56247 8.27612 3.56247 7.99997C3.56247 7.72381 3.78634 7.49997 4.06247 7.49997H7.49997V4.06247C7.49997 3.78631 7.72384 3.56247 7.99997 3.56247C8.27609 3.56247 8.49997 3.78631 8.49997 4.06247V7.49997H11.9375C12.2136 7.49997 12.4375 7.72384 12.4375 7.99997Z" fill="url(#paint0_linear_568_63923)"/>
</g>
<defs>
<linearGradient id="paint0_linear_568_63923" x1="3.40473" y1="21.9035" x2="19.9755" y2="16.4267" gradientUnits="userSpaceOnUse">
<stop stop-color="#EBD9AD"/>
<stop offset="0.5" stop-color="#FEF2D0"/>
<stop offset="1" stop-color="#B58656"/>
</linearGradient>
<clipPath id="clip0_568_63923">
<rect width="16" height="16" fill="white"/>
</clipPath>
</defs>
</svg>
