<svg width="22" height="12" viewBox="0 0 22 12" fill="none" xmlns="http://www.w3.org/2000/svg">
<path d="M11.4338 11.5228C11.2435 11.5791 11.0208 11.6072 10.7635 11.6072C10.5733 11.6072 10.3527 11.5834 10.1019 11.5401C9.8511 11.4969 9.5938 11.3996 9.33218 11.2482C9.07056 11.0969 8.81326 10.8764 8.56245 10.5866C8.31164 10.2969 8.09758 9.91203 7.91812 9.43203L7.50083 8.34446H2.81542L1.47704 11.5228H0.724609L5.41001 0.478516H5.91164L9.59164 9.43203C9.72569 9.74554 9.8511 10.0093 9.96785 10.2277C10.0846 10.4439 10.2165 10.6212 10.3614 10.7531C10.5062 10.8872 10.6619 10.9866 10.8306 11.0558C10.997 11.1228 11.1981 11.1661 11.4338 11.1899V11.525V11.5228ZM3.06839 7.67419H7.16785L5.1592 2.8223L3.06839 7.67419Z" fill="white"/>
<path d="M20.6046 3.99123C20.3927 2.89933 19.9992 2.09501 19.424 1.58042C18.8489 1.06582 18.0986 0.810686 17.1732 0.810686C16.6262 0.810686 16.1116 0.901497 15.6251 1.08528C15.1408 1.26906 14.7127 1.56961 14.3451 1.98906C13.9776 2.40636 13.6857 2.95771 13.4738 3.63663C13.2619 4.31771 13.1559 5.15879 13.1559 6.1642C13.1559 6.78906 13.2316 7.40096 13.3808 8.0042C13.5322 8.60744 13.7678 9.14366 14.0922 9.61069C14.4165 10.0799 14.8316 10.4583 15.3397 10.748C15.8478 11.0399 16.4576 11.1847 17.1711 11.1847C18.0078 11.1847 18.7278 10.9837 19.3289 10.5815C19.9322 10.1793 20.4662 9.59988 20.9354 8.84096L21.2705 9.09177C21.0024 9.61501 20.704 10.0539 20.3754 10.4064C20.0467 10.7566 19.6922 11.042 19.3138 11.2604C18.9332 11.4788 18.5246 11.6301 18.0835 11.721C17.6424 11.8096 17.1711 11.855 16.6694 11.855C15.8759 11.855 15.1603 11.7058 14.5181 11.4118C13.8759 11.1156 13.3311 10.7134 12.8792 10.1988C12.4273 9.68636 12.0813 9.08312 11.8413 8.39123C11.6013 7.69933 11.4824 6.95771 11.4824 6.16636C11.4824 5.32961 11.6186 4.5469 11.8911 3.81609C12.1635 3.08528 12.5354 2.44744 13.0046 1.90042C13.4738 1.35339 14.023 0.925281 14.6522 0.611767C15.2813 0.300416 15.9538 0.142578 16.6694 0.142578C17.5949 0.142578 18.3927 0.27447 19.063 0.536092C19.7332 0.797713 20.2176 1.11339 20.5181 1.48096C20.73 1.73825 20.8532 2.09501 20.8857 2.55123C20.9203 3.00961 20.9354 3.48744 20.9354 3.99123H20.6003H20.6046Z" fill="white"/>
</svg>
