<svg width="24" height="24" viewBox="0 0 24 24" fill="none" xmlns="http://www.w3.org/2000/svg">
<g clip-path="url(#clip0_890_89515)">
<path d="M20.6027 6.8891C19.7422 5.43833 18.5139 4.21373 17.0558 3.36607C14.6489 1.94288 11.6481 1.61375 8.9874 2.46324C5.76776 3.45249 3.19536 6.13521 2.34034 9.38979C1.64714 11.9879 2.0204 14.8251 3.40498 17.1327C2.96736 18.4713 2.53893 19.8155 2.10315 21.1577C2.01489 21.3802 2.01856 21.6193 2.11786 21.8748C2.60512 22.0863 2.95081 21.8436 3.41049 21.7149C4.56706 21.3416 5.71995 20.961 6.88204 20.6043C10.2194 22.6122 14.6507 22.4393 17.8078 20.1519C19.9849 18.6184 21.4872 16.1821 21.8807 13.549C22.2374 11.2708 21.7887 8.86758 20.6027 6.8891ZM20.5513 14.3746C19.893 16.7889 18.159 18.8575 15.9176 19.9644C13.3728 21.2405 10.2341 21.1872 7.74992 19.7824C7.4686 19.6481 7.21669 19.4312 6.89123 19.5231C5.70708 19.8596 4.54316 20.2807 3.36452 20.6392C3.71388 19.4771 4.12392 18.3334 4.46409 17.1713C4.58177 16.7668 4.33722 16.5149 4.17541 16.1711C2.92506 13.9021 2.78532 11.1072 3.75985 8.71129C4.74726 6.21979 6.89859 4.24682 9.47467 3.49294C12.766 2.46876 16.484 3.59223 18.7125 6.20508C20.634 8.41157 21.3732 11.554 20.5513 14.3746Z" fill="white"/>
<path d="M12.7049 15.7324H11.21V17.2273H12.7049V15.7324Z" fill="white"/>
<path d="M14.586 11.3088C14.1815 12.1896 13.3779 12.6787 12.8668 13.3958C12.5229 13.8776 12.5174 14.3943 12.5137 14.9624C12.1405 14.9624 11.7654 14.9624 11.3903 14.9643C11.3921 14.3446 11.3333 13.7967 11.6422 13.2322C12.0614 12.3716 12.9017 11.98 13.354 11.1709C13.6795 10.6028 13.6354 9.84337 13.2915 9.29358C12.7197 8.44408 11.3241 8.47902 10.6989 9.24577C10.2889 9.71833 10.2705 10.2497 10.1877 10.8381C9.81446 10.8381 9.43935 10.8381 9.06425 10.8344C9.02012 9.54549 9.62874 8.28044 10.892 7.82627C11.8996 7.50081 13.2529 7.59091 14.0546 8.35766C14.8214 9.08029 14.985 10.3637 14.586 11.3088Z" fill="white"/>
<path d="M14.586 11.3088C14.1815 12.1896 13.3779 12.6787 12.8668 13.3958C12.5229 13.8776 12.5174 14.3943 12.5137 14.9624C12.1405 14.9624 11.7654 14.9624 11.3903 14.9643C11.3921 14.3446 11.3333 13.7967 11.6422 13.2322C12.0614 12.3716 12.9017 11.98 13.354 11.1709C13.6795 10.6028 13.6354 9.84337 13.2915 9.29358C12.7197 8.44408 11.3241 8.47902 10.6989 9.24577C10.2889 9.71833 10.2705 10.2497 10.1877 10.8381C9.81446 10.8381 9.43935 10.8381 9.06425 10.8344C9.02012 9.54549 9.62874 8.28044 10.892 7.82627C11.8996 7.50081 13.2529 7.59091 14.0546 8.35766C14.8214 9.08029 14.985 10.3637 14.586 11.3088Z" fill="white"/>
<path d="M12.7049 15.7324H11.21V17.2273H12.7049V15.7324Z" fill="white"/>
</g>
<defs>
<clipPath id="clip0_890_89515">
<rect width="20" height="19.9982" fill="white" transform="translate(2 2)"/>
</clipPath>
</defs>
</svg>
