<svg width="111" height="111" viewBox="0 0 111 111" fill="none" xmlns="http://www.w3.org/2000/svg">
<path d="M110.92 54.38C110.07 54.32 109.23 54.35 108.37 54.34C101.94 54.34 95.51 54.31 89.08 54.3C86.29 54.32 83.5 54.01 80.79 53.34C75.94 52.16 71.45 49.76 67.67 46.51C68 46.05 68.37 45.64 68.74 45.22C70.7 42.91 72.67 40.62 74.62 38.31C78.45 33.79 82.29 29.29 86.12 24.77C86.38 24.48 86.61 24.2 86.73 23.82C86.24 24.02 85.89 24.36 85.51 24.71C78.96 30.44 72.48 36.25 65.94 41.99C65.45 42.42 64.98 42.87 64.46 43.27C63.99 42.79 63.59 42.26 63.18 41.73C61.97 40.14 60.91 38.44 60.01 36.66C57.96 32.6 56.86 28.06 56.72 23.52C56.72 21.17 56.69 18.82 56.69 16.47C56.59 14.52 56.64 12.57 56.62 10.62C56.62 7.09 56.59 3.55998 56.59 0.039978C56.2 0.019978 55.8 0.01 55.41 0H55.33H55.23H54.25C54.04 0.21 54.13 0.489979 54.12 0.759979C54.14 8.26998 54.15 15.79 54.15 23.31C54.15 24.17 54.05 25.04 53.99 25.91C53.57 30.6 52.07 35.21 49.59 39.22C48.67 40.7 47.66 42.15 46.5 43.45C46.3 43.29 46.09 43.14 45.9 42.97C39.46 37.48 33.03 32 26.58 26.52C25.89 25.94 25.19 25.38 24.51 24.79C24.29 24.59 24.07 24.5 23.78 24.43C23.89 24.61 23.99 24.8 24.13 24.96C29.86 31.42 35.53 37.9 41.24 44.38C41.91 45.15 42.61 45.89 43.25 46.69C43.08 46.85 42.91 47.01 42.73 47.16C38.91 50.29 34.43 52.57 29.59 53.61C27.74 54.01 25.85 54.27 23.96 54.33C15.97 54.33 7.99 54.37 0 54.39V56.83C0.29 56.84 0.58 56.86 0.87 56.86C7.7 56.86 14.53 56.86 21.36 56.86C22.51 56.86 23.68 56.81 24.83 56.89C26.96 57.04 29.07 57.38 31.12 57.95C35.01 59 38.64 60.86 41.84 63.3C42.39 63.72 42.94 64.14 43.42 64.64C43.28 64.83 43.13 65.01 42.98 65.19C37.14 72.04 31.34 78.91 25.5 85.76C25.12 86.21 24.72 86.63 24.38 87.12C25.04 87.04 25.37 86.61 25.84 86.21C32.34 80.46 38.85 74.72 45.36 68.99C45.78 68.61 46.2 68.25 46.64 67.91C46.82 68.1 46.99 68.29 47.15 68.49C50.29 72.39 52.54 77.03 53.48 81.96C53.89 83.92 54.04 85.9 54.13 87.9C54.13 95.2 54.13 102.5 54.13 109.8C54.13 110.2 54.13 110.6 54.16 110.99H56.02C56.2 110.98 56.39 110.97 56.57 110.95C56.57 110.75 56.57 110.54 56.58 110.34C56.58 103.01 56.59 95.66 56.61 88.33C56.68 86.35 56.81 84.31 57.21 82.37C57.65 80.2 58.28 78.03 59.16 76C60.48 72.95 62.29 70.11 64.49 67.62C65 68.01 65.48 68.44 65.97 68.85C72.48 74.32 78.92 79.9 85.42 85.39C85.96 85.84 86.47 86.3 87.06 86.68C86.54 85.8 85.88 85.06 85.23 84.27C84.89 83.85 84.52 83.46 84.17 83.05C79.15 77.37 74.21 71.63 69.18 65.95C68.72 65.44 68.25 64.93 67.82 64.38C68.22 63.97 68.67 63.63 69.13 63.29C71.36 61.61 73.78 60.2 76.37 59.15C80.24 57.58 84.37 56.86 88.53 56.84C94.53 56.84 100.53 56.84 106.53 56.84C107.99 56.81 109.46 56.87 110.92 56.82C110.96 56.01 110.97 55.2 110.92 54.39V54.38ZM49.37 43.85C52.17 40.29 54.22 36.17 55.44 31.81C55.65 32.27 55.77 32.76 55.92 33.24C57.16 36.93 59.01 40.42 61.4 43.49C61.78 43.98 62.2 44.42 62.53 44.94C62.14 45.32 61.73 45.68 61.31 46.03C59.59 47.53 57.89 49.04 56.18 50.55C55.96 50.73 55.68 50.98 55.37 50.9C55.02 50.79 54.71 50.46 54.43 50.23C52.95 48.96 51.47 47.7 49.99 46.44C49.46 45.99 48.91 45.56 48.41 45.07C48.7 44.64 49.04 44.25 49.37 43.85ZM46.24 61.32C45.85 61.79 45.46 62.26 45.04 62.7C44.59 62.35 44.15 61.97 43.7 61.61C40.81 59.33 37.55 57.52 34.08 56.27C33.38 56.02 32.67 55.82 31.97 55.56C36.61 54.22 40.93 51.89 44.63 48.77C44.72 48.7 44.8 48.64 44.89 48.57C46.71 50.56 48.45 52.61 50.25 54.62C50.53 54.93 50.8 55.26 51.07 55.59C50.76 56.01 50.42 56.41 50.08 56.8C48.8 58.3 47.52 59.81 46.24 61.31V61.32ZM61.67 67.1C59.7 69.53 58.11 72.22 56.86 75.08C56.28 76.4 55.85 77.78 55.42 79.16C55.21 78.75 55.11 78.3 54.97 77.86C53.8 74.17 51.97 70.69 49.63 67.61C49.27 67.14 48.88 66.7 48.54 66.22C49.02 65.72 49.56 65.29 50.08 64.83C51.38 63.67 52.7 62.53 54.01 61.39C54.39 61.06 54.72 60.63 55.14 60.35C55.32 60.24 55.48 60.12 55.7 60.21C56.33 60.45 56.83 61.11 57.33 61.54C58.51 62.53 59.69 63.52 60.86 64.52C61.44 65 62.03 65.47 62.57 65.99C62.29 66.37 61.99 66.74 61.68 67.1H61.67ZM77.85 55.97C74.19 57.15 70.73 58.96 67.66 61.28C67.15 61.67 66.66 62.09 66.14 62.47C65.56 61.92 65.08 61.3 64.54 60.71C63.33 59.36 62.16 57.96 60.89 56.66C60.6 56.34 60.26 55.93 60.23 55.48C60.21 55.05 60.46 54.67 60.74 54.35C61.25 53.78 61.83 53.28 62.33 52.69C63.26 51.6 64.2 50.51 65.13 49.41C65.42 49.07 65.7 48.7 66.04 48.41C66.44 48.67 66.79 49.01 67.17 49.31C70.29 51.79 73.85 53.72 77.62 55C78.16 55.18 78.71 55.33 79.25 55.51C78.79 55.69 78.33 55.81 77.86 55.96L77.85 55.97Z" fill="url(#paint0_linear_890_86394)"/>
<defs>
<linearGradient id="paint0_linear_890_86394" x1="23.6106" y1="151.942" x2="138.531" y2="113.973" gradientUnits="userSpaceOnUse">
<stop stop-color="#EBD9AD"/>
<stop offset="0.5" stop-color="#FEF2D0"/>
<stop offset="1" stop-color="#B58656"/>
</linearGradient>
</defs>
</svg>
