<svg width="21" height="20" viewBox="0 0 21 20" fill="none" xmlns="http://www.w3.org/2000/svg">
<path d="M20.0212 9.08812C18.9804 8.04726 17.9413 7.0064 16.8968 5.96735C16.7074 5.77433 16.4801 5.61198 16.2492 5.46947C15.9642 5.29449 15.6612 5.14657 15.3455 5.03292C15.0911 4.94273 14.8223 4.87057 14.5517 4.85975C14.1747 4.48092 13.7959 4.10391 13.4171 3.72689C13.3936 3.75034 13.3684 3.77559 13.3449 3.80085C13.3774 3.71967 13.4008 3.63669 13.3972 3.5465C13.3954 3.38234 13.3197 3.23622 13.2114 3.11536C13.0888 2.98007 12.9282 2.86642 12.7424 2.84838C12.6161 2.83395 12.4989 2.87003 12.3889 2.92956C12.4574 2.84477 12.5187 2.7636 12.5548 2.65897C12.636 2.42626 12.5801 2.15568 12.4105 1.97709C12.259 1.81474 12.0281 1.74439 11.8098 1.78227C11.6925 1.80031 11.5879 1.85082 11.4905 1.91576C11.6258 1.75521 11.6925 1.54415 11.6601 1.3349C11.6276 1.11662 11.4779 0.925408 11.2722 0.846036C11.0071 0.746821 10.7256 0.831605 10.5092 0.997565C10.5579 0.88933 10.5813 0.775683 10.5633 0.658429C10.5362 0.470822 10.419 0.313881 10.2801 0.191215C10.1628 0.0865879 10.0221 0.0126274 9.86518 0H9.84894H9.80384C9.63247 0.00721566 9.48275 0.0883918 9.36189 0.20745C8.34989 1.21764 7.33789 2.23144 6.3295 3.24524C6.25735 3.3192 6.18519 3.38414 6.12386 3.46532C6.02464 3.5952 5.94166 3.73951 5.8641 3.88202C5.70715 4.17606 5.57186 4.48092 5.44919 4.78939C5.34096 5.06178 5.23814 5.34139 5.16418 5.6246C5.15696 5.65527 5.13892 5.67511 5.11727 5.69857C4.79618 6.01605 4.47869 6.33895 4.15759 6.65825C4.04936 6.58609 3.9321 6.53558 3.80042 6.53558C3.61822 6.53197 3.45407 6.61495 3.32418 6.73762C3.19791 6.85848 3.09328 7.01542 3.07885 7.19401C3.06803 7.31126 3.09869 7.4213 3.15281 7.52413C2.99046 7.39244 2.78842 7.31668 2.57736 7.34734C2.29956 7.38342 2.06325 7.61613 2.01635 7.89213C1.98207 8.08334 2.03438 8.26914 2.1336 8.4315C1.98748 8.3395 1.82152 8.26734 1.64654 8.26914C1.47517 8.26914 1.30921 8.3413 1.19556 8.46938C1.06929 8.60647 1.01878 8.79769 1.04584 8.97989C1.06929 9.14224 1.15047 9.29918 1.24246 9.43086C1.13784 9.38035 1.02419 9.3551 0.908742 9.36773C0.71392 9.38757 0.542547 9.50482 0.418077 9.65094C0.315254 9.7682 0.246704 9.91071 0.230469 10.0676V10.156C0.2449 10.304 0.309843 10.4356 0.412666 10.5421C1.48419 11.6154 2.55932 12.6887 3.63626 13.7585C3.72465 13.845 3.83649 13.9154 3.94292 13.9785C4.15939 14.103 4.38849 14.2094 4.61759 14.3105C5.02527 14.4854 5.44017 14.6478 5.8677 14.7704C5.88394 14.7759 5.89837 14.7867 5.9128 14.8011C6.31868 15.2088 6.72637 15.6129 7.13225 16.0188C7.17193 15.9791 7.21342 15.9376 7.25311 15.8961C7.17734 16.0711 7.18095 16.2605 7.27115 16.4282C7.36315 16.596 7.51828 16.7439 7.69868 16.8161C7.85742 16.8792 8.02518 16.854 8.17671 16.7872C8.07208 16.9388 7.99993 17.1137 8.00895 17.3013C8.02158 17.6297 8.32102 17.9255 8.64934 17.9291C8.82251 17.9327 8.97945 17.8696 9.12196 17.7758C9.03538 17.9057 8.95781 18.0572 8.93977 18.2123C8.91632 18.3981 8.97945 18.5893 9.11475 18.7192C9.25545 18.8599 9.45929 18.9176 9.65592 18.8888C9.81647 18.8635 9.97161 18.7896 10.0997 18.6886C10.0221 18.8419 10.0077 19.0169 10.0708 19.1774C10.134 19.3452 10.2693 19.4877 10.4154 19.5887C10.5525 19.6807 10.7166 19.724 10.8808 19.6915C11.0269 19.6627 11.1496 19.5815 11.2542 19.4769C12.286 18.445 13.3233 17.424 14.3371 16.3741C14.4796 16.2388 14.5734 16.0404 14.6636 15.8672C14.9234 15.3387 15.147 14.7921 15.3707 14.2473C15.3978 14.1878 15.414 14.112 15.4591 14.0651C15.7838 13.7368 16.1085 13.4067 16.4332 13.0766C16.5126 13.1072 16.5938 13.1271 16.6786 13.1235C16.8463 13.1199 16.9979 13.0423 17.1223 12.9323C17.2522 12.8168 17.355 12.6653 17.3767 12.4885C17.3929 12.3604 17.3622 12.236 17.3027 12.1241C17.4326 12.2143 17.5859 12.3009 17.7465 12.3135C18.1289 12.3514 18.5005 11.9762 18.4572 11.5956C18.4446 11.4531 18.3797 11.334 18.3075 11.2149C18.4717 11.325 18.6502 11.4062 18.8523 11.3917C19.1734 11.3683 19.4494 11.067 19.4331 10.7441C19.4295 10.5475 19.3105 10.3725 19.2022 10.2174C19.3051 10.2715 19.4151 10.304 19.5324 10.2949C19.729 10.2823 19.9022 10.1651 20.032 10.0225C20.1439 9.90169 20.2178 9.75016 20.2305 9.586V9.52467C20.2178 9.35871 20.1421 9.20718 20.023 9.09173L20.0212 9.08812ZM5.53037 5.95472C5.55743 5.92405 5.59711 5.8988 5.60072 5.85551C5.64041 5.63723 5.71798 5.42076 5.79374 5.21151C5.93445 4.83449 6.09319 4.46288 6.2808 4.10571C6.36378 3.95418 6.45217 3.78642 6.57664 3.66555C7.61389 2.6247 8.64753 1.58744 9.68659 0.550194C9.72447 0.514116 9.77859 0.469018 9.83271 0.472626C9.89945 0.483449 9.95898 0.537566 10.0059 0.582664C10.0456 0.624154 10.0925 0.676468 10.0979 0.735997C10.0997 0.793722 10.0528 0.840624 10.0149 0.88031C9.80925 1.08776 9.6018 1.29521 9.39435 1.50086C9.30777 1.58925 9.23741 1.69568 9.22479 1.82195C9.19412 2.08172 9.4593 2.33607 9.71726 2.29458C9.84173 2.27654 9.94274 2.20258 10.0311 2.11599C10.2638 1.88329 10.4984 1.65239 10.7347 1.42509C10.8213 1.34392 10.9493 1.25913 11.0738 1.28078C11.1568 1.29521 11.1983 1.37278 11.1947 1.45396C11.1929 1.56399 11.0991 1.64517 11.0323 1.72454C10.8104 1.96807 10.5759 2.19897 10.3432 2.43168C10.2548 2.52368 10.1809 2.62289 10.161 2.75277C10.1195 3.01254 10.3667 3.2741 10.6264 3.25426C10.7473 3.24524 10.8501 3.1821 10.9349 3.10093C11.173 2.86642 11.4039 2.6265 11.6456 2.3974C11.734 2.32164 11.8387 2.22964 11.9649 2.25309C12.0984 2.27113 12.1598 2.43709 12.0876 2.54532C11.974 2.70948 11.8242 2.8556 11.6889 3.00352C11.5717 3.1316 11.4454 3.25246 11.3209 3.37332C11.2325 3.45991 11.164 3.56093 11.1496 3.6872C11.1261 3.87842 11.2542 4.0534 11.4201 4.13457C11.5392 4.19049 11.6781 4.18147 11.7936 4.12194C11.9036 4.06602 11.9721 3.98124 12.0569 3.89826C12.2121 3.74312 12.3672 3.58799 12.5223 3.43285C12.5602 3.39677 12.6017 3.34987 12.6504 3.33003C12.7099 3.30657 12.7641 3.35167 12.8056 3.38775C12.8525 3.43105 12.9084 3.48877 12.921 3.55191C12.9264 3.60242 12.8849 3.65112 12.8525 3.6854C12.1688 4.37269 11.4815 5.05637 10.7978 5.74186C10.7383 5.80139 10.6715 5.85009 10.63 5.92225C10.5885 5.99441 10.5849 6.08821 10.5831 6.16939C10.5831 6.29025 10.6102 6.41472 10.695 6.50672C10.7635 6.57707 10.8573 6.60052 10.9547 6.60233C11.0792 6.59872 11.2001 6.57346 11.3029 6.50311C11.3949 6.59331 11.4851 6.6835 11.5753 6.7737C11.3408 6.91982 11.1009 7.07134 10.8555 7.19581C10.5182 7.36538 10.1105 7.43213 9.77678 7.61071C9.3709 7.8362 8.91812 7.95526 8.45271 7.88491C8.16408 7.84342 7.88989 7.73338 7.63734 7.58907C7.50746 7.5133 7.40103 7.40687 7.28017 7.3257C7.18636 7.26256 7.07091 7.2337 6.95907 7.25354C6.84542 7.27338 6.74982 7.33472 6.66864 7.41409C6.47923 7.60169 6.29162 7.79291 6.10401 7.98052C5.66927 7.54938 5.23814 7.11464 4.80339 6.6817C5.04512 6.44178 5.28504 6.20005 5.52496 5.96013L5.53037 5.95472ZM12.1183 9.56435C12.2175 9.77541 12.2878 9.99729 12.387 10.2102C12.5692 10.6052 12.7532 11.0021 12.9517 11.3899C13.0094 11.5036 13.0852 11.5974 13.1681 11.693C12.7406 11.4368 12.2337 11.3015 11.7358 11.334C11.4346 11.352 11.1423 11.426 10.8627 11.5396C10.5218 11.6767 10.1791 11.812 9.83812 11.9491C9.43765 12.1115 9.05883 12.3081 8.71428 12.5715C8.59161 12.6635 8.47977 12.7681 8.36432 12.8691C8.30659 12.806 8.24165 12.7465 8.19114 12.6779C8.15326 12.6364 8.19836 12.5823 8.2182 12.5408C8.41483 12.2161 8.55012 11.8589 8.59161 11.4801C8.63491 11.0959 8.57898 10.7098 8.4473 10.3473C8.27954 9.88365 8.09373 9.42726 7.90071 8.97447C7.72754 8.5722 7.50024 8.19338 7.21162 7.86326C7.36134 7.98052 7.5273 8.0653 7.69868 8.14467C8.08111 8.31785 8.50142 8.40263 8.92173 8.36656C9.32039 8.33408 9.6938 8.19879 10.042 8.00397C10.3685 7.85244 10.7329 7.78569 11.0576 7.62334C11.4725 7.41589 11.8603 7.1435 12.2626 6.9108C12.2752 6.99919 12.2662 7.08036 12.2193 7.15793C12.0227 7.50428 11.8928 7.88311 11.8657 8.28177C11.835 8.72553 11.9325 9.16208 12.1165 9.56435H12.1183ZM7.13405 15.3477C6.80754 15.0194 6.47923 14.6947 6.15272 14.3664C6.13468 14.3483 6.11845 14.3375 6.09139 14.3321C5.87311 14.287 5.66025 14.2094 5.451 14.1337C5.07398 13.993 4.70057 13.8378 4.34159 13.6556C4.19908 13.5799 4.04575 13.5023 3.93571 13.3832C2.90207 12.355 1.87023 11.325 0.83839 10.2931C0.795096 10.248 0.733761 10.2011 0.712114 10.1416C0.69227 10.0785 0.735566 10.0099 0.775252 9.96482C0.82035 9.91251 0.881682 9.85298 0.952034 9.83855C1.01337 9.82773 1.05486 9.8638 1.09635 9.90169C1.31462 10.1164 1.53109 10.3346 1.74756 10.5511C1.86121 10.6629 2.01093 10.7315 2.17148 10.7008C2.3627 10.6593 2.52866 10.4771 2.53407 10.2787C2.53768 10.1344 2.46191 10.0135 2.3645 9.91431C2.1354 9.68522 1.89548 9.46334 1.68262 9.21981C1.60505 9.12781 1.52388 9.00514 1.51666 8.88247C1.51305 8.79589 1.58701 8.73636 1.6718 8.74357C1.81791 8.76161 1.9478 8.87165 2.04881 8.97087C2.26889 9.17832 2.47454 9.39839 2.6892 9.60945C2.81187 9.72671 2.96701 9.80608 3.14018 9.76459C3.3332 9.71588 3.50999 9.51565 3.49014 9.3082C3.48112 9.1711 3.40356 9.06287 3.30975 8.96906C3.07344 8.73455 2.83352 8.50185 2.60262 8.26012C2.54128 8.19518 2.49078 8.12122 2.48176 8.02922C2.46913 7.91377 2.57917 7.79471 2.69823 7.81636C2.79744 7.83079 2.86779 7.89754 2.93995 7.96248C3.17626 8.17714 3.39454 8.41165 3.62544 8.63534C3.72285 8.72553 3.8419 8.79047 3.979 8.78146C4.20449 8.76522 4.41735 8.55236 4.40292 8.31965C4.39571 8.18797 4.32536 8.07793 4.23696 7.98412C4.03853 7.77667 3.83108 7.57464 3.62724 7.37079C3.59297 7.33472 3.55147 7.28781 3.55328 7.2355C3.55689 7.18499 3.59838 7.13809 3.63085 7.10201C3.66693 7.06593 3.71202 7.01903 3.76253 7.00821C3.83289 7.0028 3.8834 7.04068 3.9321 7.08578C4.6212 7.77307 5.31029 8.46036 6.00119 9.14765C6.0535 9.19816 6.10221 9.25408 6.16354 9.29557C6.34213 9.42906 6.62715 9.37134 6.76244 9.20357C6.88511 9.03761 6.85985 8.78146 6.73538 8.62271C6.82558 8.53432 6.91397 8.44412 7.00417 8.35393C7.19719 8.60828 7.35232 8.88969 7.4786 9.18373C7.6626 9.61847 7.84118 10.0586 8.00173 10.5024C8.10636 10.791 8.15326 11.0977 8.12259 11.4025C8.09193 11.7164 7.98369 12.0123 7.82315 12.281C7.74738 12.4055 7.69326 12.5354 7.70589 12.6833C7.71852 12.8349 7.79969 12.9575 7.90071 13.0658C8.14424 13.3255 8.39318 13.5817 8.64753 13.8324C8.14244 14.3375 7.63734 14.8426 7.13405 15.3495V15.3477ZM15.111 13.7314C15.0586 13.7837 15.0262 13.8577 14.9937 13.9244C14.7538 14.5053 14.5175 15.0915 14.2415 15.6562C14.1675 15.7969 14.1008 15.9502 13.9835 16.0584C12.9787 17.0993 11.9505 18.1095 10.9295 19.1323C10.8862 19.1738 10.8267 19.2225 10.7653 19.2279C10.7022 19.2207 10.6445 19.172 10.6012 19.1305C10.5579 19.0872 10.5074 19.0313 10.5038 18.9664C10.5038 18.9068 10.5453 18.8635 10.5831 18.822C10.7852 18.6164 10.989 18.4126 11.1929 18.2087C11.2794 18.1221 11.3534 18.0229 11.3714 17.8984C11.4147 17.6333 11.1496 17.3609 10.8826 17.4024C10.7599 17.4204 10.6625 17.489 10.5759 17.5719C10.3288 17.8137 10.0816 18.0626 9.82549 18.2953C9.75153 18.362 9.6451 18.4198 9.54228 18.4162C9.4611 18.4126 9.39796 18.3476 9.40879 18.2646C9.42863 18.151 9.508 18.0409 9.57655 17.9508C9.784 17.6946 10.0474 17.4709 10.2783 17.2364C10.3631 17.1462 10.4316 17.0326 10.4388 16.9063C10.4569 16.6628 10.2296 16.4319 9.98784 16.4391C9.84533 16.4463 9.72627 16.5257 9.62886 16.6249C9.43043 16.8287 9.232 17.029 9.02816 17.2274C8.94157 17.314 8.83153 17.4222 8.70706 17.4457C8.5862 17.4709 8.46714 17.3573 8.48338 17.2364C8.496 17.1318 8.57177 17.0326 8.64212 16.9586C8.85498 16.7385 9.07326 16.5239 9.29153 16.3092C9.37992 16.219 9.44487 16.109 9.44667 15.9773C9.44847 15.7319 9.20494 15.5046 8.95961 15.5317C8.83875 15.5443 8.73773 15.6057 8.65114 15.6886C8.44369 15.8889 8.24165 16.0945 8.03781 16.2984C8.00173 16.3326 7.96205 16.3705 7.91154 16.3777C7.85201 16.3777 7.79428 16.329 7.7546 16.2893C7.71491 16.2479 7.66801 16.1919 7.67162 16.1324C7.67703 16.0675 7.74377 16.0115 7.78707 15.9682C8.46173 15.2936 9.1382 14.6171 9.81286 13.9406C9.87961 13.8775 9.94455 13.827 9.97702 13.7386C10.0023 13.6628 10.0059 13.5763 10.0041 13.4951C10.0005 13.3832 9.968 13.2678 9.88322 13.1902C9.81467 13.1271 9.72627 13.1072 9.63608 13.1036C9.51161 13.1036 9.38894 13.1271 9.28432 13.1974C9.19412 13.109 9.10573 13.0188 9.01553 12.9305C9.3258 12.6959 9.66855 12.5228 10.0275 12.3785C10.3757 12.2396 10.722 12.1007 11.0702 11.9636C11.3552 11.8517 11.6565 11.7886 11.9631 11.803C12.277 11.8174 12.5801 11.9112 12.8561 12.061C12.9896 12.1331 13.0563 12.254 13.1808 12.3388C13.2674 12.3983 13.3702 12.4308 13.4766 12.4145C13.5921 12.4001 13.6877 12.3388 13.7706 12.2612C13.9727 12.0718 14.1603 11.8698 14.3605 11.6785C14.8259 12.144 15.2932 12.6094 15.7604 13.0766C15.5439 13.2967 15.3238 13.5131 15.1055 13.7314H15.111ZM19.6478 9.73573C19.6063 9.77361 19.5504 9.81871 19.4927 9.82051C19.4385 9.82051 19.4007 9.78263 19.3646 9.74835C19.1535 9.5391 18.9443 9.32804 18.7332 9.11879C18.6322 9.02138 18.5131 8.94561 18.3688 8.94741C18.2101 8.94741 18.073 9.05204 17.99 9.18192C17.9305 9.27573 17.9142 9.39118 17.9485 9.49761C17.9936 9.63831 18.091 9.73031 18.1938 9.82953C18.3977 10.0298 18.6142 10.23 18.7909 10.4537C18.8505 10.5331 18.91 10.616 18.9497 10.7062C19.0002 10.8109 18.8847 10.9389 18.7747 10.9173C18.6575 10.8938 18.5456 10.8091 18.4608 10.7261C18.2696 10.5421 18.0856 10.3527 17.898 10.1651C17.8222 10.0893 17.7555 10.0117 17.6599 9.9558C17.5535 9.89267 17.4272 9.8602 17.3045 9.89267C17.1548 9.93235 17.0411 10.0658 17.0195 10.2192C16.9979 10.3689 17.0339 10.5403 17.1368 10.6539C17.3424 10.8848 17.5661 11.0887 17.7789 11.3105C17.8583 11.3917 17.9341 11.4909 17.9756 11.5974C17.9972 11.6479 17.9846 11.7002 17.9539 11.7435C17.9088 11.8048 17.8367 11.8643 17.7555 11.8355C17.6437 11.794 17.5408 11.7164 17.4524 11.6371C17.2396 11.444 17.043 11.2312 16.8391 11.0273C16.7291 10.9191 16.5866 10.8505 16.4296 10.8794C16.2168 10.9227 16.0364 11.1428 16.0634 11.3629C16.0761 11.4855 16.141 11.592 16.2258 11.6785C16.4242 11.8806 16.6262 12.0808 16.8265 12.2792C16.8608 12.3153 16.9022 12.3586 16.9059 12.4091C16.9077 12.4614 16.8698 12.5119 16.8355 12.548C16.794 12.5913 16.7381 12.64 16.6768 12.649C16.619 12.6563 16.5812 12.6184 16.5433 12.5805C15.8506 11.8896 15.1561 11.2005 14.467 10.506C14.4183 10.4555 14.3786 10.4032 14.3172 10.3653C14.2469 10.322 14.1585 10.3112 14.0773 10.3058C13.9727 10.3004 13.859 10.313 13.7743 10.3797C13.6877 10.4483 13.648 10.5583 13.6408 10.6647C13.6318 10.7946 13.6534 10.9263 13.7292 11.0363C13.639 11.1265 13.5488 11.2167 13.4586 11.3069C13.4243 11.2618 13.3918 11.2167 13.3648 11.1662C13.1717 10.7892 12.995 10.4086 12.8182 10.0244C12.7208 9.81329 12.6504 9.59322 12.5512 9.38216C12.4051 9.06647 12.3185 8.72734 12.3311 8.37738C12.3438 8.03283 12.4502 7.70452 12.6198 7.40507C12.6991 7.26977 12.7424 7.11825 12.7388 6.96131C12.7352 6.76287 12.6504 6.57346 12.5115 6.43276C12.3257 6.24335 12.1363 6.05574 11.9469 5.86813C12.4376 5.37927 12.9246 4.8868 13.4153 4.39975C13.731 4.71182 14.0448 5.02751 14.3587 5.34139C14.4868 5.33057 14.6113 5.33417 14.7375 5.35763C15.0208 5.40994 15.2968 5.51637 15.5565 5.63723C15.8452 5.77433 16.1266 5.93849 16.3755 6.13692C16.4964 6.23072 16.5956 6.34076 16.7056 6.44719C17.6978 7.43393 18.6845 8.42428 19.6749 9.41282C19.7145 9.45432 19.7542 9.49941 19.7524 9.56075C19.7452 9.62929 19.6929 9.69063 19.6442 9.73573H19.6478Z" fill="white"/>
</svg>
