<svg width="24" height="20" viewBox="0 0 24 20" fill="none" xmlns="http://www.w3.org/2000/svg">
<g clip-path="url(#clip0_890_86125)">
<path d="M23.8976 5.73572C22.9666 4.44968 21.9059 3.25924 20.9203 2.01417C20.4105 1.41098 19.953 0.753168 19.4044 0.1864C19.2132 -0.0298363 18.8695 0.0225158 18.6055 0.00430636C14.4492 0.0111349 10.2951 0.00885871 6.13885 0.00430636C5.65857 0.0156872 5.14416 -0.0434933 4.67527 0.0634869C4.16995 0.384428 3.83536 1.00355 3.43475 1.44285C2.31032 2.88822 1.08118 4.26303 0 5.73344V5.97016C0.311836 6.40264 0.685129 6.8078 1.03566 7.21068C4.45448 11.169 7.88923 15.1136 11.308 19.0718C11.4651 19.2517 11.629 19.4246 11.802 19.5908H12.1138C16.0812 15.043 20.0121 10.4497 23.9954 5.91554V5.73799H23.893L23.8976 5.73572ZM9.67147 0.757721C11.1646 0.750892 12.6578 0.741787 14.1487 0.762273C14.4924 0.787311 14.6176 1.05362 14.7064 1.34725C15.1502 2.7084 15.5759 4.07866 16.0129 5.44437C13.3042 5.45575 10.5956 5.44892 7.88695 5.44437C8.28983 4.08777 8.761 2.74937 9.17071 1.39505C9.30728 1.1128 9.25721 0.732683 9.67147 0.757721ZM4.36571 1.44513C4.64112 1.14012 4.90971 0.696264 5.3786 0.753168C6.45979 0.744064 7.54097 0.753168 8.61988 0.753168C8.11912 2.33511 7.60926 3.91478 7.10395 5.49444C5.10319 5.49444 3.10243 5.49444 1.09939 5.49444C2.16237 4.12418 3.28225 2.79945 4.36343 1.44513H4.36571ZM1.16313 6.24558C2.87709 6.12722 4.61153 6.22965 6.32777 6.18868C6.69651 6.22054 7.14036 6.10218 7.24507 6.57335C8.49697 10.238 9.75342 13.93 11.0008 17.5991C7.71624 13.8275 4.42489 10.0354 1.16313 6.24558ZM11.9454 18.1158C10.5865 14.1598 9.23217 10.1993 7.88695 6.24103C10.5933 6.24103 13.302 6.24103 16.0061 6.24103C14.6631 10.2016 13.3156 14.1621 11.9476 18.1158H11.9454ZM20.8475 8.43299C18.198 11.4808 15.5668 14.5422 12.9082 17.5832C14.0986 13.9732 15.371 10.3882 16.5797 6.78731C16.6662 6.58246 16.714 6.30476 16.9393 6.21144C17.7997 6.16819 18.6737 6.1864 19.5319 6.22054C20.6062 6.29566 21.6669 6.14543 22.7413 6.21144C22.1449 6.98079 21.4757 7.69095 20.8498 8.43526L20.8475 8.43299ZM16.7822 5.44892C16.2678 3.88746 15.783 2.31918 15.2731 0.757721C16.2587 0.748616 17.2443 0.762273 18.2322 0.721302C18.89 0.716749 19.286 1.1128 19.6662 1.59308C20.6654 2.91098 21.7398 4.1606 22.7777 5.44664H16.7822V5.44892Z" fill="white"/>
</g>
<defs>
<clipPath id="clip0_890_86125">
<rect width="24" height="19.5888" fill="white"/>
</clipPath>
</defs>
</svg>
