<svg width="24" height="24" viewBox="0 0 24 24" fill="none" xmlns="http://www.w3.org/2000/svg">
<mask id="mask0_890_88735" style="mask-type:luminance" maskUnits="userSpaceOnUse" x="2" y="2" width="20" height="20">
<path d="M22 2H2V22H22V2Z" fill="white"/>
</mask>
<g mask="url(#mask0_890_88735)">
<path d="M2.78109 21.8192C2.62422 21.8192 2.47096 21.7579 2.35737 21.6443C2.19869 21.4856 2.14099 21.2494 2.20951 21.0367L3.52217 16.9581C2.64406 15.4579 2.18066 13.7503 2.18066 12.0013C2.18066 6.58662 6.58564 2.18164 11.9986 2.18164C17.4115 2.18164 21.8164 6.58662 21.8164 12.0013C21.8164 17.416 17.4115 21.821 11.9986 21.821C10.2477 21.821 8.542 21.3576 7.04182 20.4795L2.96321 21.7922C2.90371 21.812 2.8406 21.821 2.77929 21.821L2.78109 21.8192ZM7.11936 19.2209C7.23115 19.2209 7.34114 19.2516 7.43851 19.3129C8.80345 20.1676 10.3812 20.6184 12.0004 20.6184C16.7533 20.6184 20.6192 16.7525 20.6192 11.9995C20.6192 7.24655 16.7533 3.3807 12.0004 3.3807C7.24738 3.3807 3.38153 7.24655 3.38153 11.9995C3.38153 13.6187 3.83411 15.1964 4.68697 16.5614C4.78074 16.711 4.80237 16.8949 4.75008 17.0626L3.7115 20.2866L6.93544 19.248C6.99494 19.2282 7.05805 19.2191 7.11936 19.2191V19.2209Z" fill="white"/>
<path d="M12.976 11.9988C12.976 12.5379 12.5379 12.976 11.9988 12.976C11.4596 12.976 11.0215 12.5379 11.0215 11.9988C11.0215 11.4596 11.4578 11.0215 11.9988 11.0215C12.5397 11.0215 12.976 11.4578 12.976 11.9988Z" fill="white"/>
<path d="M16.8833 11.9988C16.8833 12.5379 16.4469 12.976 15.906 12.976C15.3651 12.976 14.9287 12.5379 14.9287 11.9988C14.9287 11.4596 15.3651 11.0215 15.906 11.0215C16.4469 11.0215 16.8833 11.4578 16.8833 11.9988Z" fill="white"/>
<path d="M9.07077 11.9988C9.07077 12.5379 8.63442 12.976 8.09349 12.976C7.55256 12.976 7.11621 12.5379 7.11621 11.9988C7.11621 11.4596 7.55256 11.0215 8.09349 11.0215C8.63442 11.0215 9.07077 11.4578 9.07077 11.9988Z" fill="white"/>
</g>
</svg>
