<svg width="24" height="24" viewBox="0 0 24 24" fill="none" xmlns="http://www.w3.org/2000/svg">
<path d="M15.4449 4.19727H4.28782C3.24092 4.19727 2.39062 5.04756 2.39062 6.09446V22.1027C2.39062 23.1495 3.24092 23.9998 4.28782 23.9998H15.4449C16.4918 23.9998 17.3421 23.1495 17.3421 22.1027V6.09446C17.3372 5.04756 16.4869 4.19727 15.4449 4.19727ZM16.0101 22.0977C16.0101 22.4123 15.7545 22.6679 15.44 22.6679H4.2829C3.96834 22.6679 3.71276 22.4123 3.71276 22.0977V6.09446C3.71276 5.7799 3.96834 5.52432 4.2829 5.52432H15.44C15.7545 5.52432 16.0101 5.7799 16.0101 6.09446V22.0977Z" fill="white"/>
<path d="M19.7105 0H8.55344C7.50655 0 6.65625 0.850297 6.65625 1.89719C6.65625 2.26582 6.95115 2.56072 7.31978 2.56072C7.6884 2.56072 7.9833 2.26582 7.9833 1.89719C7.9833 1.58263 8.23888 1.32705 8.55344 1.32705H19.7105C20.0251 1.32705 20.2807 1.58263 20.2807 1.89719V17.9054C20.2807 18.2199 20.0251 18.4755 19.7105 18.4755C19.3419 18.4755 19.047 18.7704 19.047 19.1391C19.047 19.5077 19.3419 19.8026 19.7105 19.8026C20.7574 19.8026 21.6077 18.9523 21.6077 17.9054V1.89719C21.6077 0.850297 20.7574 0 19.7105 0Z" fill="white"/>
</svg>
