<svg width="30" height="30" viewBox="0 0 30 30" fill="none" xmlns="http://www.w3.org/2000/svg">
<path d="M16.6214 15L23.6943 7.92706C24.1426 7.47882 24.1426 6.75353 23.6943 6.30529C23.2461 5.85706 22.5208 5.85706 22.0726 6.30529L14.9996 13.3782L7.92669 6.30529C7.47846 5.85706 6.75316 5.85706 6.30493 6.30529C5.85669 6.75353 5.85669 7.47882 6.30493 7.92706L13.3779 15L6.30493 22.0729C5.85669 22.5212 5.85669 23.2465 6.30493 23.6947C6.52904 23.9188 6.82199 24.03 7.11669 24.03C7.4114 24.03 7.70434 23.9188 7.92846 23.6947L15.0014 16.6218L22.0743 23.6947C22.2985 23.9188 22.5914 24.03 22.8861 24.03C23.1808 24.03 23.4737 23.9188 23.6979 23.6947C24.1461 23.2465 24.1461 22.5212 23.6979 22.0729L16.6249 15H16.6214Z" fill="#7B7B7B"/>
</svg>
