<svg width="20" height="20" viewBox="0 0 20 20" fill="none" xmlns="http://www.w3.org/2000/svg">
<path d="M18.7537 13.1473C18.5694 12.8105 18.3323 12.502 18.0538 12.2367C17.7038 11.9017 17.3313 11.5913 16.9625 11.2789C16.4601 10.8556 15.9465 10.4285 15.4554 9.99194C16.0085 9.49521 16.5768 9.02294 17.1412 8.53749C17.4423 8.27784 17.7471 8.01818 18.0312 7.74159C18.4772 7.31071 18.814 6.76882 18.9984 6.17801C19.2034 5.53263 19.2279 4.83457 19.083 4.17414C18.908 3.37447 18.4809 2.6369 17.8807 2.08183C17.478 1.71305 17.0735 1.34238 16.669 0.973592C16.398 0.725225 16.0989 0.5032 15.7677 0.341385C15.5118 0.213438 15.2409 0.13065 14.9605 0.0742025C14.5202 -0.0161127 14.063 -0.023639 13.619 0.0497421C13.2163 0.115597 12.8212 0.247307 12.4524 0.422292C12.1269 0.580344 11.7844 0.689475 11.457 0.847527C10.8154 1.15234 10.1776 1.4628 9.54912 1.78831C8.92444 1.46468 8.28847 1.16551 7.65062 0.868224C7.32888 0.71958 6.99772 0.614212 6.67973 0.459924C6.06258 0.172044 5.39274 0.0139923 4.70973 0.0572684C4.15091 0.0930182 3.57891 0.252951 3.10476 0.555884C2.82064 0.732751 2.57227 0.951013 2.32955 1.17868C1.99463 1.48914 1.65971 1.79772 1.32479 2.10818C0.93531 2.46379 0.61356 2.89467 0.387772 3.37071C0.129997 3.91072 -0.00547521 4.51094 0.000169492 5.11116C0.00393263 5.70761 0.148813 6.30219 0.423522 6.83091C0.594745 7.16018 0.814888 7.465 1.07643 7.7303C1.83282 8.49798 2.58921 9.26378 3.3456 10.0315C2.58921 10.7954 1.8347 11.5612 1.08019 12.327C0.690703 12.7259 0.391536 13.2113 0.212788 13.7381C-0.0054743 14.3816 -0.0449879 15.0797 0.0886034 15.7458C0.256063 16.585 0.70011 17.3602 1.33232 17.9359C1.72745 18.3009 2.12258 18.666 2.51771 19.031C2.81688 19.3038 3.14238 19.539 3.51305 19.7065C3.93076 19.889 4.39175 19.9831 4.84521 20H5.01078C5.59783 19.9887 6.16606 19.8382 6.69478 19.5898C7.00148 19.4431 7.31759 19.3396 7.62805 19.2003C8.296 18.8918 8.96019 18.5775 9.6131 18.2389C10.2585 18.5644 10.9076 18.8786 11.5624 19.1834C11.8823 19.332 12.2153 19.4374 12.5333 19.5917C13.0488 19.8325 13.6039 19.9812 14.1759 20H14.3415C14.7441 19.9925 15.1468 19.9191 15.5269 19.7817C15.9916 19.6124 16.4037 19.3189 16.7612 18.9821C17.145 18.6265 17.5307 18.2708 17.9146 17.9133C18.2965 17.5596 18.6089 17.1344 18.8309 16.664C19.0774 16.1409 19.2091 15.567 19.2129 14.9894V14.8821C19.1978 14.2744 19.0416 13.6742 18.7481 13.1417L18.7537 13.1473ZM11.6847 1.33862C12.0121 1.18245 12.3527 1.07143 12.68 0.913381C13.0639 0.728988 13.4684 0.59916 13.8918 0.554002C14.3791 0.501318 14.8777 0.567173 15.3368 0.738396C15.7508 0.900211 16.0876 1.16363 16.4093 1.46468C16.7198 1.7488 17.0302 2.03291 17.3407 2.31515C17.4367 2.40358 17.5364 2.49013 17.6267 2.58421C17.9936 2.95676 18.2777 3.41022 18.4489 3.90507C18.6314 4.43191 18.6841 5.00203 18.5938 5.55333C18.5054 6.10651 18.2702 6.63335 17.9165 7.06799C17.7791 7.23921 17.6229 7.38597 17.463 7.53462C17.2673 7.71525 17.0641 7.89023 16.8609 8.06522C16.2569 8.58453 15.6454 9.09067 15.0527 9.62504C14.9342 9.51403 14.8175 9.39925 14.7009 9.28259C14.556 9.13959 14.3772 9.02858 14.174 8.99095C13.9727 8.95332 13.7638 9.00036 13.5907 9.10761C13.444 9.19604 13.3499 9.31458 13.2219 9.42747C12.0723 10.4887 10.9038 11.5292 9.75233 12.5885C9.65261 12.6751 9.56418 12.7785 9.45505 12.8538C9.43435 12.8312 9.38919 12.8143 9.40048 12.7767C9.4287 12.7259 9.47951 12.6845 9.51902 12.6431C9.8069 12.3571 10.1023 12.073 10.3751 11.7738C10.4429 11.7023 10.5162 11.6327 10.5877 11.5631C11.4307 10.754 12.2793 9.94679 13.1128 9.12642C13.3141 8.92509 13.5174 8.72565 13.7074 8.51491C13.7563 8.45658 13.8128 8.39637 13.8466 8.32864C13.9426 8.11602 13.952 7.86954 13.8617 7.65316C13.7714 7.43866 13.5983 7.25614 13.395 7.14325C13.1072 6.98144 12.7083 7.00401 12.458 7.22604C11.7242 6.49975 10.9584 5.80734 10.202 5.10551C9.67519 4.61819 9.14835 4.1271 8.64221 3.61908C8.59893 3.57768 8.55377 3.53817 8.50862 3.49865C8.51614 3.45914 8.49732 3.42527 8.54625 3.41022C8.61963 3.40081 8.65726 3.45726 8.71182 3.49489C9.21985 3.88061 9.72975 4.26822 10.2397 4.65206C10.5426 4.8929 10.9001 5.10363 11.2783 5.19771C11.5304 5.2598 11.8051 5.26545 12.0403 5.14314C12.3037 5.00391 12.5051 4.71227 12.4975 4.40933C12.4938 4.16097 12.3696 3.93706 12.2153 3.7489C11.9632 3.44221 11.6188 3.20513 11.2915 2.98499C10.8926 2.69711 10.4843 2.42052 10.091 2.12323C10.6197 1.85605 11.1522 1.59639 11.6885 1.34238L11.6847 1.33862ZM12.0441 7.57413C11.0374 8.45094 10.0515 9.35221 9.06556 10.2516C8.70054 10.5922 8.36562 10.9722 7.99495 11.309C7.97049 11.3297 7.94603 11.3523 7.91216 11.358C7.88205 11.358 7.86136 11.3316 7.86512 11.3015C7.89899 11.2413 7.95732 11.1943 8.00436 11.1453C8.35245 10.7973 8.70242 10.451 9.0411 10.0935C9.77303 9.37479 10.5125 8.66544 11.2331 7.93539C11.3648 7.79992 11.5003 7.66444 11.6207 7.51768C11.6828 7.44618 11.7073 7.36151 11.7355 7.27308C11.8371 7.3728 11.9406 7.47252 12.0422 7.57413H12.0441ZM1.46967 7.36151C1.0482 6.9344 0.749035 6.38874 0.619207 5.80169C0.489379 5.22405 0.521364 4.61442 0.700113 4.04995C0.860046 3.54381 1.13852 3.0753 1.50542 2.69146C1.61644 2.57292 1.73874 2.46756 1.85728 2.35466C2.19596 2.04232 2.53464 1.7281 2.87332 1.41576C3.11792 1.19185 3.39075 0.990526 3.6918 0.85129C4.15655 0.644317 4.68527 0.555884 5.19141 0.59916C5.64487 0.63491 6.07575 0.770382 6.48593 0.964184C6.79451 1.11095 7.1219 1.2182 7.43048 1.35931C8.02505 1.6359 8.61586 1.91438 9.19915 2.21354C9.46069 2.34525 9.70905 2.50519 9.94049 2.68205C10.266 2.92666 10.6066 3.15245 10.934 3.39329C11.2124 3.58333 11.506 3.77901 11.7393 4.02549C11.8258 4.11957 11.9237 4.23999 11.9481 4.36794C11.9782 4.50717 11.8578 4.64077 11.7317 4.6784C11.5793 4.72544 11.3987 4.6784 11.2538 4.62195C10.9584 4.50529 10.6818 4.31714 10.4353 4.12145C9.96119 3.75643 9.4908 3.38952 9.00347 3.04143C8.92068 2.98687 8.83225 2.91161 8.73252 2.89091C8.59141 2.85892 8.43336 2.84951 8.29224 2.89091C8.18123 2.9229 8.0815 2.98311 8.02505 3.08659C7.9592 3.20325 7.95355 3.35566 7.96484 3.48737C7.97613 3.57015 7.97237 3.64542 8.02881 3.71127C8.20192 3.92389 8.40325 4.11769 8.59705 4.31337C9.24055 4.95122 9.90474 5.57026 10.5727 6.18553C10.4523 6.22881 10.3526 6.30407 10.2547 6.38686C9.8991 6.68039 9.55665 6.99084 9.21232 7.29754C8.62715 7.8225 8.04763 8.35498 7.46811 8.88558C7.14072 9.18099 6.83402 9.50838 6.52733 9.82448C6.49346 9.85835 6.45771 9.89786 6.41443 9.92233C6.3768 9.92233 6.37115 9.89598 6.34858 9.87152C6.38056 9.82825 6.41255 9.78685 6.45018 9.74922C7.33452 8.85171 8.22073 7.95609 9.10507 7.05858C9.25371 6.90805 9.36849 6.72742 9.40236 6.51481C9.43435 6.32101 9.38731 6.12532 9.28947 5.95598C9.18974 5.78288 9.04675 5.63423 8.88493 5.51946C8.70618 5.39527 8.49356 5.32378 8.27342 5.34635C8.04763 5.36705 7.8463 5.48371 7.68825 5.64364C6.36739 6.97955 5.04465 8.31547 3.72379 9.65326C2.96928 8.89123 2.21854 8.12731 1.46591 7.36528L1.46967 7.36151ZM9.3064 17.791C8.72123 18.0959 8.12289 18.3781 7.52456 18.6547C7.18023 18.8203 6.81709 18.935 6.47276 19.1006C6.09645 19.2756 5.69944 19.4017 5.28737 19.4468C4.85461 19.4939 4.41433 19.4468 3.9985 19.3151C3.6824 19.2173 3.40016 19.0555 3.14051 18.8522C2.97116 18.7224 2.81876 18.5757 2.66259 18.4308C2.33143 18.1241 1.99839 17.8174 1.66724 17.5107C1.242 17.1118 0.914612 16.6094 0.730219 16.0544C0.547706 15.5068 0.502548 14.9141 0.611679 14.3478C0.715165 13.8059 0.959769 13.2922 1.31727 12.8707C1.40758 12.7616 1.5073 12.6657 1.60515 12.564C3.7539 10.3833 5.90829 8.20634 8.0608 6.02936C8.12854 5.96163 8.20004 5.9033 8.29788 5.8826C8.3882 5.86379 8.47851 5.89577 8.55566 5.94281C8.65162 6.00302 8.73252 6.08769 8.79837 6.17801C8.85482 6.25891 8.89246 6.35299 8.868 6.45272C8.83977 6.56561 8.74758 6.65028 8.66855 6.73119C7.80679 7.60612 6.94127 8.47916 6.07951 9.35409C5.98167 9.45193 5.89324 9.55918 5.84243 9.68901C5.79539 9.81508 5.7954 9.95996 5.84996 10.0841C5.90076 10.2008 5.99484 10.3005 6.09645 10.3739C6.2037 10.451 6.33729 10.4868 6.469 10.4642C6.63081 10.4379 6.77569 10.3325 6.88858 10.2196C7.16518 9.93738 7.43989 9.64197 7.72777 9.37291C8.44088 8.71812 9.15399 8.06522 9.87651 7.42172C10.1305 7.19593 10.3845 6.97015 10.648 6.75565C10.7289 6.68791 10.8305 6.65028 10.9377 6.66721C11.0337 6.68227 11.1184 6.75377 11.1729 6.82903C11.2614 6.94569 11.2595 7.13572 11.1503 7.23733C10.9829 7.41984 10.806 7.59671 10.631 7.77169C9.98 8.4246 9.31581 9.06245 8.65914 9.70783C8.29976 10.0898 7.92533 10.4567 7.55466 10.8274C7.40978 10.9704 7.28748 11.166 7.28183 11.3749C7.27619 11.5273 7.34016 11.6741 7.4587 11.7719C7.55842 11.8585 7.68637 11.8999 7.8162 11.9017C7.99495 11.9055 8.19251 11.8547 8.32611 11.7324C8.7551 11.3504 9.14082 10.9026 9.56606 10.5188C10.3845 9.7718 11.2068 9.02858 12.0328 8.29289C12.2774 8.07651 12.5201 7.86013 12.7704 7.65127C12.8644 7.56848 13.0074 7.54779 13.1203 7.60423C13.2313 7.66256 13.333 7.76417 13.3743 7.88459C13.3988 7.96173 13.395 8.05769 13.3367 8.11978C13.205 8.27031 13.062 8.40766 12.9228 8.55066C12.0159 9.45193 11.0864 10.3306 10.1663 11.2168C10.0985 11.2827 10.0289 11.3486 9.96495 11.4182C9.67895 11.7305 9.36849 12.024 9.06932 12.3232C8.97901 12.4173 8.89998 12.5264 8.86423 12.6544C8.82848 12.7842 8.84542 12.9234 8.90939 13.0401C9.01476 13.2282 9.22173 13.3844 9.44376 13.3844C9.62251 13.3844 9.78056 13.2997 9.9085 13.1812C10.1682 12.9347 10.4335 12.6958 10.6969 12.4549C11.5436 11.6854 12.3922 10.9196 13.237 10.1462C13.4233 9.97501 13.6095 9.80567 13.7921 9.6288C13.8711 9.55542 13.9689 9.49897 14.0799 9.51779C14.1966 9.54037 14.2982 9.63068 14.3753 9.71912C14.445 9.80191 14.5089 9.90163 14.4995 10.0145C14.492 10.1086 14.4337 10.182 14.3716 10.246C13.9294 10.69 13.4722 11.1228 13.0169 11.5555C12.0742 12.4474 11.1259 13.3317 10.1813 14.2198C9.53783 14.8276 8.89057 15.4334 8.26401 16.0562C8.18875 16.1277 8.11161 16.1804 8.05704 16.2707C8.0006 16.3573 7.98931 16.4645 7.9799 16.5661C7.96861 16.7091 7.97613 16.8728 8.05892 16.9951C8.13983 17.1137 8.29036 17.1682 8.42771 17.1814C8.55001 17.1908 8.67796 17.1814 8.79461 17.1438C8.81155 17.1363 8.8266 17.1268 8.84165 17.1156C9.3986 16.7016 9.95743 16.2877 10.5144 15.8756C10.7477 15.6969 11.0073 15.5238 11.2858 15.4203C11.4194 15.3713 11.5793 15.3318 11.7186 15.3638C11.839 15.3902 11.9594 15.5031 11.9651 15.6291C11.9651 15.7533 11.8747 15.8812 11.7976 15.9734C11.5643 16.2425 11.2407 16.457 10.9471 16.6565C10.6179 16.8973 10.2792 17.1231 9.95178 17.3677C9.74669 17.5239 9.53031 17.6669 9.30264 17.7892L9.3064 17.791ZM18.4471 16.203C18.2551 16.7016 17.9466 17.1532 17.5571 17.5163C17.1695 17.8757 16.78 18.2351 16.3924 18.5945C16.1384 18.8315 15.8524 19.0479 15.5382 19.1966C15.3481 19.2869 15.143 19.349 14.9361 19.3941C14.6369 19.46 14.3302 19.4788 14.0254 19.4543C13.5738 19.4186 13.141 19.2831 12.7327 19.0912C12.4129 18.9388 12.0817 18.8334 11.7618 18.6829C11.22 18.4308 10.6799 18.1711 10.1456 17.9039C10.5181 17.6217 10.9057 17.362 11.282 17.0873C11.5492 16.9067 11.8089 16.7317 12.0422 16.5078C12.2115 16.3441 12.3734 16.1484 12.4561 15.9245C12.5258 15.7345 12.5276 15.5238 12.443 15.3375C12.3527 15.1361 12.1833 14.9668 11.9782 14.884C11.7901 14.8069 11.5831 14.805 11.3855 14.8407C11.0337 14.9066 10.6931 15.0835 10.4052 15.2904C9.84453 15.7194 9.27818 16.1447 8.71747 16.5718C8.66855 16.6075 8.62903 16.6508 8.56318 16.6508C8.50673 16.6565 8.49733 16.5737 8.53684 16.5473C8.66102 16.442 8.77015 16.3215 8.88869 16.2086C9.6131 15.5012 10.3526 14.8106 11.0901 14.1182C12.1043 13.1643 13.1222 12.216 14.127 11.2526C14.3095 11.0776 14.4901 10.9007 14.6708 10.722C14.8119 10.6147 14.9248 10.4774 15.0584 10.3607C15.6398 10.8763 16.2362 11.3711 16.8308 11.8716C17.1337 12.1294 17.4385 12.3872 17.7227 12.6656C18.2213 13.1567 18.5487 13.8078 18.6465 14.5002C18.7293 15.0741 18.6578 15.6649 18.4489 16.2049L18.4471 16.203Z" fill="white"/>
</svg>
