<svg width="24" height="21" viewBox="0 0 24 21" fill="none" xmlns="http://www.w3.org/2000/svg">
<g clip-path="url(#clip0_890_86117)">
<path d="M23.7741 8.48073C22.5648 7.91221 21.3827 7.33917 20.0538 7.10679C20.0967 5.66291 20.117 4.04531 19.6162 2.67363C18.0031 2.6804 16.4599 3.11582 15.0386 3.86257C14.3686 2.47961 13.4661 1.1756 12.311 0.153604C11.9907 -0.150964 11.8215 0.0611057 11.5575 0.284456C10.4791 1.29968 9.61729 2.5157 8.99011 3.8558C7.5372 3.12935 5.99857 2.65332 4.35841 2.69393C3.90494 4.17165 3.92976 5.59974 3.95006 7.12258C2.54905 7.40234 1.20443 7.84452 0.00195312 8.62963V8.96579C0.577249 10.9444 1.49998 12.8056 2.95965 14.2856C4.13506 15.4632 5.73912 16.1829 7.41538 16.1559C8.91115 16.1987 10.3212 15.8175 11.6951 15.2579C12.0651 15.1 12.3516 15.2873 12.6991 15.4046C14.249 16.0295 15.9884 16.316 17.6489 16.0679C19.1627 15.8152 20.4983 14.9759 21.4774 13.8096C22.6506 12.4807 23.4041 10.9037 23.9252 9.22298C23.9952 8.95225 24.1125 8.62512 23.7763 8.48299L23.7741 8.48073ZM5.08261 14.8225C2.93709 13.778 1.56089 11.2399 0.859257 9.05377C1.82485 8.47397 2.9416 8.12653 4.04707 7.93702C4.28622 9.38316 4.78932 10.7571 5.72784 11.8987C6.98898 13.4508 8.67652 14.245 10.5333 14.8609C8.67652 15.3865 6.89648 15.7001 5.08035 14.8203L5.08261 14.8225ZM7.56428 12.5304C6.3257 11.6528 5.47291 10.3375 5.07133 8.88457C4.58402 7.08874 4.62463 5.26584 4.94724 3.4452C6.24448 3.61892 7.49885 3.94153 8.63591 4.61159C8.32006 5.77571 8.07415 6.90149 8.21854 8.11976C8.45317 10.3758 9.51577 12.3206 10.9078 14.0713C9.71656 13.6855 8.58627 13.2861 7.56653 12.5326L7.56428 12.5304ZM11.9839 14.1051C10.4137 12.2393 9.15706 10.2405 8.98334 7.74075C8.84346 5.31322 10.0482 3.06618 11.6432 1.31773C11.7628 1.18688 11.8824 1.05603 12.0042 0.925178C12.7194 1.74187 13.403 2.54278 13.9331 3.49483C14.7724 4.98158 15.2259 6.7571 14.9213 8.45817C14.5694 10.6037 13.3939 12.492 11.9816 14.1028L11.9839 14.1051ZM15.7267 8.50104C15.9365 7.1835 15.747 5.87498 15.3432 4.6161C16.487 3.95507 17.7391 3.62569 19.0386 3.43843C19.4424 5.75767 19.4312 8.30927 18.2828 10.4277C17.2586 12.3521 15.1559 13.5163 13.1052 14.0352C14.4092 12.3973 15.4086 10.5969 15.7245 8.50329L15.7267 8.50104ZM21.6353 12.2574C20.7826 13.5456 19.7222 14.6195 18.2219 15.1068C16.6224 15.6257 14.9754 15.3256 13.4142 14.8225C15.0995 14.3014 16.6472 13.6043 17.888 12.3138C19.0657 11.1113 19.6545 9.5862 19.9478 7.95282C21.0668 8.10397 22.1633 8.51458 23.1559 9.03798C22.7453 10.1683 22.3031 11.2557 21.6331 12.2596L21.6353 12.2574Z" fill="white"/>
<path d="M2.48916 15.0908C2.45983 15.2781 2.42825 15.4653 2.39892 15.6526C2.12368 15.9707 1.68149 16.3497 1.94545 16.8122C2.43051 17.5748 3.4525 18.0237 4.27597 18.3102C6.07405 18.9103 7.9917 19.2036 9.87777 19.3187C12.7791 19.3616 15.5743 19.4225 18.4102 18.6892C19.6037 18.3869 21.1581 17.9515 21.9658 16.9611C22.3831 16.4219 21.9612 16.0609 21.6138 15.6616C21.58 15.4744 21.5461 15.2916 21.51 15.1044C22.2816 14.8224 22.7464 15.6503 22.902 16.273C23.0284 17.2251 22.3651 17.8771 21.6251 18.335C20.3166 19.1111 18.69 19.4902 17.2077 19.7564C14.9201 20.1422 12.576 20.2662 10.2636 20.1264C7.88792 20.0158 5.42881 19.6661 3.21562 18.766C2.35831 18.3847 1.18741 17.7214 1.09492 16.6746C1.02949 15.9369 1.60253 14.8088 2.49142 15.0886L2.48916 15.0908Z" fill="white"/>
</g>
<defs>
<clipPath id="clip0_890_86117">
<rect width="24" height="20.185" fill="white"/>
</clipPath>
</defs>
</svg>
