<svg width="22" height="24" viewBox="0 0 22 24" fill="none" xmlns="http://www.w3.org/2000/svg">
<g clip-path="url(#clip0_890_86101)">
<path d="M20.93 5.91644C20.3829 4.50813 19.4629 3.28971 18.3168 2.3109C17.5935 1.69604 16.8045 1.14899 15.9275 0.773742C13.1108 -0.449203 9.66579 -0.218629 7.06845 1.43834C5.94271 2.17527 4.94808 3.13599 4.20436 4.25947C3.44031 5.40782 2.97238 6.72118 2.78023 8.08428C2.72824 8.43918 2.71694 8.79183 2.63556 9.14221C2.45472 9.97634 2.01392 10.7517 1.6997 11.5429C1.22499 12.75 0.680206 13.9255 0.189672 15.1303C0.0698637 15.4152 -0.0386415 15.6819 0.0133506 15.9984C0.0608216 16.29 0.252966 16.5296 0.521969 16.6494C0.919821 16.8393 1.39001 16.7444 1.82403 16.7918C2.06817 16.8122 2.35299 16.8574 2.49993 17.0789C2.63104 17.2846 2.6333 17.5807 2.64008 17.8158C2.64008 18.4352 2.56322 19.1631 2.74407 19.7644C2.82092 20.0379 2.99724 20.2549 3.27303 20.3454C3.70931 20.4878 4.23827 20.4539 4.69038 20.4381C5.17865 20.4381 5.66692 20.4381 6.1552 20.4381C6.3383 20.4381 6.51236 20.4742 6.64799 20.6031C6.78588 20.7568 6.81979 20.958 6.81301 21.1569C6.78588 21.7808 6.74293 22.407 6.7565 23.0309C6.77006 23.3293 6.85144 23.6548 7.1227 23.8243C7.41657 23.9984 7.81668 24.0006 8.14898 24.0006C9.32219 23.9939 10.4954 24.0165 11.6664 23.9848C12.7808 23.9848 13.8952 23.9848 15.0074 23.9848C15.3533 23.9735 15.7805 23.9147 15.9568 23.5734C16.149 23.2027 16.097 22.6782 16.106 22.2713C16.0902 21.4282 16.1467 20.5918 16.106 19.7531C16.1015 19.4005 16.106 19.0478 16.1038 18.6974C16.0993 18.4624 16.1422 18.2363 16.2846 18.0464C16.4361 17.8339 16.6734 17.7299 16.8904 17.5943C18.2829 16.7489 19.4946 15.6457 20.331 14.2374C21.1199 12.906 21.5087 11.3914 21.5562 9.84975C21.6036 8.50926 21.425 7.17329 20.9323 5.92096L20.93 5.91644ZM19.4494 13.8215C18.6672 15.1823 17.5302 16.3578 16.1038 17.036C15.785 17.1512 15.5341 17.4203 15.3646 17.7051C15.134 18.069 15.2244 18.5709 15.2244 18.9868C15.2244 19.8345 15.2651 20.6618 15.2289 21.5073C15.2176 21.7831 15.2448 22.0656 15.2131 22.3392C15.1815 22.5675 15.03 22.7574 14.8153 22.8387C14.4965 22.954 14.1122 22.945 13.7777 22.9653C13.4454 22.9721 13.1131 23.0015 12.7808 22.9834C11.4923 22.945 10.2038 22.9653 8.91304 22.9585C8.59883 22.9518 8.24392 23.0309 7.95458 22.8749C7.7353 22.746 7.67201 22.5087 7.67201 22.2691C7.69009 21.5457 7.73304 20.8201 7.69688 20.1012C7.68783 19.9453 7.72174 19.7463 7.65167 19.6039C7.43239 19.518 7.15209 19.5519 6.91926 19.5451C6.0806 19.518 5.23969 19.5338 4.40103 19.5316C3.89693 19.4751 3.44031 18.9778 3.47422 18.4601C3.47648 17.8158 3.47422 17.1693 3.47422 16.5228C3.46517 16.3013 3.43353 16.0572 3.20069 15.9667C2.92265 15.8741 2.58131 15.9215 2.28744 15.9102C2.032 15.9012 1.77882 15.8944 1.52338 15.8944C1.35836 15.8899 1.15492 15.8492 1.07806 15.6819C0.994419 15.5146 1.05997 15.3473 1.12101 15.1869C1.57763 14.1108 2.01844 13.0258 2.44342 11.9362C2.5587 11.6446 2.66043 11.3485 2.78928 11.0614C3.05376 10.4737 3.40866 9.8814 3.59176 9.26202C3.71157 8.87999 3.69123 8.49118 3.76582 8.08654C4.12073 5.78759 5.51095 3.73503 7.44144 2.46009C8.90174 1.48355 10.6649 0.972668 12.4214 1.01562C13.6941 1.05179 14.9464 1.38634 16.0721 1.98086C17.4827 2.72231 18.6876 3.8571 19.5104 5.22246C20.2564 6.45444 20.6768 7.87631 20.6768 9.31853C20.6723 10.8896 20.227 12.4607 19.4494 13.8215Z" fill="white"/>
<path d="M13.2888 8.04341C13.7364 8.41866 14.0054 8.97475 14.0755 9.55118C14.1275 10.053 14.1117 10.5436 13.8924 11.0092C13.6957 11.4704 13.3702 11.7959 13.0266 12.1463C12.6378 12.5215 12.2083 12.8922 12.0071 13.4076C11.8534 13.7851 11.885 14.1627 11.8828 14.5605C11.5166 14.5605 11.1504 14.5605 10.7842 14.5605C10.7864 14.2214 10.7661 13.9004 10.8271 13.5659C10.9017 13.0776 11.1707 12.6165 11.4985 12.2548C11.7811 11.9315 12.1201 11.667 12.4027 11.3393C12.6853 11.0228 12.9136 10.6249 12.9362 10.1932C12.9724 9.68229 12.8458 9.11716 12.4547 8.76226C12.0885 8.4164 11.5324 8.34406 11.0532 8.42318C10.5762 8.49326 10.1603 8.79843 9.92064 9.20984C9.69911 9.59865 9.63356 10.0598 9.62678 10.5006C9.26057 10.5006 8.89663 10.5006 8.53042 10.5006C8.49651 9.72072 8.74291 8.90693 9.26283 8.31468C9.64034 7.88065 10.1648 7.59357 10.7277 7.4828C11.5934 7.32004 12.6039 7.44889 13.2911 8.03889L13.2888 8.04341Z" fill="white"/>
<path d="M10.6094 15.3535H12.0448V16.7889H10.6094V15.3535Z" fill="white"/>
</g>
<defs>
<clipPath id="clip0_890_86101">
<rect width="21.5609" height="24" fill="white"/>
</clipPath>
</defs>
</svg>
