<svg width="22" height="22" viewBox="0 0 22 22" fill="none" xmlns="http://www.w3.org/2000/svg">
<g clip-path="url(#clip0_347_31991)">
<path d="M11 19.9567C10.701 19.9567 10.4128 19.8484 10.1882 19.6516C9.33983 18.9098 8.52192 18.2127 7.8003 17.5978L7.79662 17.5946C5.68095 15.7917 3.85399 14.2347 2.58282 12.7009C1.16186 10.9863 0.5 9.36057 0.5 7.58456C0.5 5.85902 1.09168 4.2671 2.16594 3.10184C3.25301 1.9228 4.74464 1.27344 6.36652 1.27344C7.57872 1.27344 8.68887 1.65668 9.66603 2.41242C10.1592 2.7939 10.6062 3.26077 11 3.80535C11.394 3.26077 11.8408 2.7939 12.3341 2.41242C13.3113 1.65668 14.4214 1.27344 15.6336 1.27344C17.2554 1.27344 18.7471 1.9228 19.8342 3.10184C20.9085 4.2671 21.5 5.85902 21.5 7.58456C21.5 9.36057 20.8383 10.9863 19.4173 12.7008C18.1462 14.2347 16.3194 15.7915 14.204 17.5943C13.4811 18.2102 12.6619 18.9084 11.8117 19.652C11.5872 19.8484 11.2988 19.9567 11 19.9567ZM6.36652 2.50359C5.09231 2.50359 3.92176 3.01212 3.07021 3.93561C2.20599 4.87304 1.72999 6.16888 1.72999 7.58456C1.72999 9.07826 2.28514 10.4142 3.52987 11.916C4.73294 13.3678 6.52241 14.8927 8.59434 16.6585L8.59818 16.6617C9.32253 17.279 10.1436 17.9788 10.9982 18.7261C11.858 17.9774 12.6804 17.2764 13.4061 16.6581C15.4779 14.8924 17.2672 13.3678 18.4703 11.916C19.7149 10.4142 20.27 9.07826 20.27 7.58456C20.27 6.16888 19.794 4.87304 18.9298 3.93561C18.0784 3.01212 16.9077 2.50359 15.6336 2.50359C14.7002 2.50359 13.8432 2.80031 13.0865 3.38542C12.4122 3.90709 11.9424 4.56654 11.667 5.02797C11.5254 5.26525 11.2761 5.40688 11 5.40688C10.7239 5.40688 10.4746 5.26525 10.333 5.02797C10.0578 4.56654 9.58801 3.90709 8.91349 3.38542C8.15678 2.80031 7.29978 2.50359 6.36652 2.50359Z" fill="white"/>
</g>
<defs>
<clipPath id="clip0_347_31991">
<rect width="21" height="21" fill="white" transform="translate(0.5 0.125)"/>
</clipPath>
</defs>
</svg>
