<svg width="24" height="20" viewBox="0 0 24 20" fill="none" xmlns="http://www.w3.org/2000/svg">
<g clip-path="url(#clip0_890_86131)">
<path d="M21.4917 1.154C20.3895 0.375668 19.1118 0.0764833 17.7823 0H17.3189C16.4911 0.0674852 15.6903 0.200206 14.9254 0.537632C13.7219 1.05502 12.7952 1.92783 11.9966 2.94686C10.8291 1.35645 9.12171 0.258693 7.13989 0.0337426L6.98017 0.013497L6.81146 0H5.89591C4.30101 0.148468 2.78034 0.719842 1.64884 1.88284C0.274391 3.24379 -0.231749 5.23685 0.0966795 7.12194C0.546581 9.97207 2.46766 12.4533 4.51696 14.3811C6.74847 16.4596 9.33316 18.203 11.8796 19.8744H12.1248C15.4113 17.6924 19.051 15.2989 21.5075 12.1788C22.9787 10.3455 24.0134 8.19496 24.0022 5.80148C23.9707 3.95913 22.9922 2.20677 21.494 1.15175L21.4917 1.154ZM20.6977 11.7379C18.8081 14.1247 16.2189 15.994 13.7242 17.7059C13.1303 18.1018 12.5882 18.5337 11.9493 18.8531C9.74932 17.3842 7.61903 15.9558 5.64622 14.1831C4.33475 13.0291 3.17401 11.7469 2.25396 10.2578C1.42164 8.93504 0.895255 7.36939 0.890756 5.79923C0.928997 4.21558 1.78606 2.70166 3.11552 1.84685C4.99386 0.627613 7.5268 0.557878 9.43214 1.76136C10.2959 2.2765 10.9483 3.01209 11.4814 3.85341C11.6389 4.1256 11.8504 4.19983 12.1315 4.30331C12.6894 3.70944 13.0268 2.98285 13.6567 2.44521C14.9907 1.13825 17.0805 0.661355 18.8823 1.01453C20.34 1.27997 21.611 2.19552 22.4118 3.42825C23.0462 4.45852 23.2306 5.75424 23.0169 6.93748C22.7402 8.76858 21.8427 10.314 20.6999 11.7379H20.6977Z" fill="white"/>
</g>
<defs>
<clipPath id="clip0_890_86131">
<rect width="24" height="19.8767" fill="white"/>
</clipPath>
</defs>
</svg>
