<svg width="24" height="24" viewBox="0 0 24 24" fill="none" xmlns="http://www.w3.org/2000/svg">
<path d="M20.6104 1.87414C20.4158 1.75954 20.2342 1.66224 20.0656 1.57792C18.4093 0.72819 16.5629 0.287109 14.6947 0.287109C14.5218 0.287109 14.3488 0.289272 14.1737 0.29792C8.22124 0.56819 3.32178 5.4417 3.0234 11.3963C2.85907 14.6439 3.99853 17.7249 6.22989 20.0687C8.46124 22.419 11.4775 23.7098 14.7164 23.7098C16.0958 23.7098 17.4493 23.472 18.738 23.0006C18.9326 22.9293 19.125 22.8536 19.3175 22.7714C19.5942 22.6547 19.7629 22.4104 19.7802 22.1098C19.7975 21.8547 19.6893 21.5109 19.3477 21.312C19.1704 21.206 18.9975 21.0979 18.8245 20.9898C16.0072 19.1087 14.325 15.9779 14.325 12.6114V12.6049C14.325 8.76927 16.4612 5.31846 19.9012 3.6017C20.072 3.51306 20.2602 3.42657 20.4591 3.33792C20.8266 3.18008 20.9737 2.84711 20.991 2.58981C21.0104 2.28927 20.8699 2.02549 20.6104 1.87414ZM17.6569 3.03089C14.5434 5.22333 12.6839 8.80387 12.6839 12.6049C12.6839 15.9001 14.0807 19.0568 16.5153 21.2644L17.1077 21.8028L16.3185 21.9347C15.791 22.0255 15.2677 22.0666 14.7164 22.0666C9.1661 22.0666 4.64935 17.552 4.64935 11.9995C4.64935 6.44711 9.1661 1.93251 14.7164 1.93251C15.6742 1.93251 16.6256 2.06873 17.5423 2.34116L18.312 2.56819L17.6569 3.03089Z" fill="white"/>
</svg>
