<svg width="24" height="24" viewBox="0 0 24 24" fill="none" xmlns="http://www.w3.org/2000/svg">
<path d="M11.9062 11.496C12.1651 11.496 12.375 11.2861 12.375 11.0272V9.59945H13.2952C13.554 9.59945 13.7639 9.38955 13.7639 9.1307C13.7639 8.87186 13.554 8.66195 13.2952 8.66195H12.375V7.77344H13.415C13.6739 7.77344 13.8838 7.56353 13.8838 7.30469C13.8838 7.04584 13.6739 6.83594 13.415 6.83594H11.9062C11.6474 6.83594 11.4375 7.04584 11.4375 7.30469V11.0272C11.4375 11.2861 11.6474 11.496 11.9062 11.496Z" fill="url(#paint0_linear_1143_78846)"/>
<path d="M8.50541 6.82227H7.44336C7.31891 6.82227 7.19952 6.87177 7.11158 6.95989C7.02364 7.04802 6.97438 7.16745 6.97461 7.29191V7.29481V7.29491C6.97461 7.29491 6.97784 11.0424 6.9838 11.0722C6.99139 11.1858 7.03953 11.2931 7.12077 11.3737C7.20861 11.4609 7.3273 11.5098 7.451 11.5098H7.45278C7.48489 11.5096 8.24211 11.5067 8.54474 11.5014C9.67105 11.4817 10.4885 10.4995 10.4885 9.16602C10.4885 7.76417 9.69158 6.82227 8.50541 6.82227ZM8.52833 10.5641C8.38817 10.5665 8.14067 10.5685 7.91811 10.5699C7.91666 10.1261 7.9137 8.22069 7.91295 7.75977H8.50541C9.01091 7.75977 9.55105 8.12919 9.55105 9.16602C9.55105 9.85297 9.23478 10.5517 8.52833 10.5641Z" fill="url(#paint1_linear_1143_78846)"/>
<path d="M4.69165 6.82227H3.64751C3.52291 6.82227 3.40348 6.87186 3.31549 6.96008C3.22793 7.04792 3.1788 7.16694 3.1788 7.29102H3.17871V11.041C3.17871 11.2999 3.38857 11.5098 3.64746 11.5098C3.90635 11.5098 4.11621 11.2999 4.11621 11.041V9.87837C4.32682 9.8773 4.55876 9.87631 4.6916 9.87631C5.54501 9.87631 6.23932 9.19133 6.23932 8.34931C6.23932 7.5073 5.54505 6.82227 4.69165 6.82227ZM4.69165 8.93877C4.55923 8.93877 4.33034 8.93975 4.12095 8.94083C4.11987 8.72394 4.11827 7.98627 4.11766 7.75977H4.6917C5.02249 7.75977 5.30191 8.02972 5.30191 8.34927C5.30191 8.66881 5.02244 8.93877 4.69165 8.93877Z" fill="url(#paint2_linear_1143_78846)"/>
<path d="M23.9425 17.8877C23.8603 17.7375 23.7026 17.644 23.5312 17.644H22.3941V13.6637C22.3941 13.4048 22.1842 13.1949 21.9254 13.1949H20.5293V4.0777C20.5293 3.95334 20.4799 3.83409 20.3919 3.74616L16.7812 0.137203C16.6934 0.0493594 16.5742 0 16.4499 0H3.9375C3.16209 0 2.53125 0.630844 2.53125 1.40625V4.94667H1.40625C0.630844 4.94667 0 5.57752 0 6.35292V11.9779C0 12.7533 0.630844 13.3842 1.40625 13.3842H2.53125V21.6537C2.53125 22.4291 3.16209 23.0599 3.9375 23.0599H19.2052L19.6677 23.7823C19.7539 23.9168 19.9027 23.9982 20.0625 23.9982C20.2222 23.9982 20.371 23.9168 20.4572 23.7823L23.9259 18.3654C24.0184 18.2212 24.0247 18.0381 23.9425 17.8877ZM16.8717 1.5532L18.9754 3.65583H17.3405C17.082 3.65583 16.8717 3.44555 16.8717 3.18708V1.5532ZM3.9375 22.1225C3.67903 22.1225 3.46875 21.9122 3.46875 21.6537V13.3842H6.65245C6.91134 13.3842 7.1212 13.1743 7.1212 12.9155C7.1212 12.6566 6.91134 12.4467 6.65245 12.4467H1.40625C1.14778 12.4467 0.9375 12.2364 0.9375 11.978V6.35297C0.9375 6.0945 1.14778 5.88422 1.40625 5.88422H15.6562C15.9147 5.88422 16.125 6.0945 16.125 6.35297V11.978C16.125 12.2364 15.9147 12.4467 15.6562 12.4467H10.8712C10.6123 12.4467 10.4025 12.6566 10.4025 12.9155C10.4025 13.1743 10.6123 13.3842 10.8712 13.3842H15.6562C16.4317 13.3842 17.0625 12.7534 17.0625 11.978V6.35297C17.0625 5.57756 16.4317 4.94672 15.6562 4.94672H3.46875V1.4063C3.46875 1.14783 3.67903 0.937547 3.9375 0.937547H15.9342V3.18708C15.9342 3.96248 16.5651 4.59333 17.3405 4.59333H19.5918V13.1949H18.1996C17.9408 13.1949 17.7309 13.4048 17.7309 13.6637V17.644H16.5938C16.4224 17.644 16.2647 17.7375 16.1825 17.8877C16.1003 18.0381 16.1066 18.2212 16.199 18.3655L18.6048 22.1224L3.9375 22.1225ZM20.0625 22.6603L17.4505 18.5815H18.1996C18.4585 18.5815 18.6684 18.3716 18.6684 18.1127V14.1324H21.4566V18.1127C21.4566 18.3716 21.6664 18.5815 21.9253 18.5815H22.6744L20.0625 22.6603Z" fill="url(#paint3_linear_1143_78846)"/>
<path d="M8.76172 13.3848C9.0206 13.3848 9.23047 13.1749 9.23047 12.916C9.23047 12.6571 9.0206 12.4473 8.76172 12.4473C8.50284 12.4473 8.29297 12.6571 8.29297 12.916C8.29297 13.1749 8.50284 13.3848 8.76172 13.3848Z" fill="url(#paint4_linear_1143_78846)"/>
<defs>
<linearGradient id="paint0_linear_1143_78846" x1="11.9581" y1="13.2154" x2="14.6862" y2="12.7421" gradientUnits="userSpaceOnUse">
<stop stop-color="#EBD9AD"/>
<stop offset="0.5" stop-color="#FEF2D0"/>
<stop offset="1" stop-color="#B58656"/>
</linearGradient>
<linearGradient id="paint1_linear_1143_78846" x1="7.72236" y1="13.2393" x2="11.5257" y2="12.297" gradientUnits="userSpaceOnUse">
<stop stop-color="#EBD9AD"/>
<stop offset="0.5" stop-color="#FEF2D0"/>
<stop offset="1" stop-color="#B58656"/>
</linearGradient>
<linearGradient id="paint2_linear_1143_78846" x1="3.83" y1="13.2393" x2="7.18961" y2="12.5143" gradientUnits="userSpaceOnUse">
<stop stop-color="#EBD9AD"/>
<stop offset="0.5" stop-color="#FEF2D0"/>
<stop offset="1" stop-color="#B58656"/>
</linearGradient>
<linearGradient id="paint3_linear_1143_78846" x1="5.10712" y1="32.8529" x2="29.9631" y2="24.6372" gradientUnits="userSpaceOnUse">
<stop stop-color="#EBD9AD"/>
<stop offset="0.5" stop-color="#FEF2D0"/>
<stop offset="1" stop-color="#B58656"/>
</linearGradient>
<linearGradient id="paint4_linear_1143_78846" x1="8.49247" y1="13.7307" x2="9.46342" y2="13.4098" gradientUnits="userSpaceOnUse">
<stop stop-color="#EBD9AD"/>
<stop offset="0.5" stop-color="#FEF2D0"/>
<stop offset="1" stop-color="#B58656"/>
</linearGradient>
</defs>
</svg>
