<svg width="24" height="24" viewBox="0 0 24 24" fill="none" xmlns="http://www.w3.org/2000/svg">
<rect x="0.5" y="0.5" width="23" height="23" rx="11.5" stroke="url(#paint0_linear_507_35428)"/>
<path d="M19.4968 8.39406L19.4967 8.39405L19.4949 8.40193L17.9841 15.078L17.984 15.078L17.9828 15.0835C17.9773 15.1094 17.9628 15.1326 17.942 15.1491C17.9211 15.1656 17.8952 15.1743 17.8687 15.1737L17.8687 15.1735H17.8575H6.09001V15.1734L6.07888 15.1737C6.05233 15.1743 6.02641 15.1656 6.00557 15.1491C5.98473 15.1326 5.97028 15.1094 5.96471 15.0835L5.96426 15.0814L4.50262 8.40576C4.50261 8.40572 4.5026 8.40568 4.5026 8.40564C4.49805 8.38471 4.49949 8.36292 4.50675 8.34276C4.51402 8.32257 4.52683 8.30483 4.54372 8.29159L4.54388 8.29147C4.56081 8.27817 4.58116 8.26994 4.60258 8.26772C4.62399 8.2655 4.6456 8.26938 4.6649 8.27891L4.66489 8.27892L4.66819 8.28051L8.25495 10.0186L8.67726 10.2233L8.90824 9.81476L11.8806 4.55788C11.8806 4.55785 11.8806 4.55781 11.8806 4.55778C11.8906 4.54025 11.905 4.52567 11.9224 4.51553L11.6707 4.08352L11.9224 4.51553C11.9399 4.50536 11.9597 4.5 11.9799 4.5C12.0001 4.5 12.0199 4.50536 12.0374 4.51552L12.2891 4.08352L12.0374 4.51553C12.0548 4.52564 12.0691 4.54016 12.0791 4.5576C12.0791 4.5577 12.0792 4.55779 12.0792 4.55788L15.0515 9.82069L15.2824 10.2295L15.7049 10.0247L19.3163 8.27435L19.3244 8.27042L19.3324 8.26619C19.3518 8.25588 19.3738 8.25141 19.3957 8.25332C19.4176 8.25523 19.4386 8.26343 19.4559 8.27694C19.4733 8.29045 19.4864 8.30869 19.4936 8.32947C19.5009 8.35025 19.502 8.37268 19.4968 8.39406Z" fill="url(#paint1_linear_507_35428)" stroke="url(#paint2_linear_507_35428)"/>
<path d="M7 18H17" stroke="url(#paint3_linear_507_35428)" stroke-linecap="round"/>
<defs>
<linearGradient id="paint0_linear_507_35428" x1="5.10712" y1="32.8554" x2="29.9634" y2="24.6402" gradientUnits="userSpaceOnUse">
<stop stop-color="#EBD9AD"/>
<stop offset="0.5" stop-color="#FEF2D0"/>
<stop offset="1" stop-color="#B58656"/>
</linearGradient>
<linearGradient id="paint1_linear_507_35428" x1="7.40475" y1="19.981" x2="22.6561" y2="13.0722" gradientUnits="userSpaceOnUse">
<stop stop-color="#EBD9AD"/>
<stop offset="0.5" stop-color="#FEF2D0"/>
<stop offset="1" stop-color="#B58656"/>
</linearGradient>
<linearGradient id="paint2_linear_507_35428" x1="7.40475" y1="19.981" x2="22.6561" y2="13.0722" gradientUnits="userSpaceOnUse">
<stop stop-color="#EBD9AD"/>
<stop offset="0.5" stop-color="#FEF2D0"/>
<stop offset="1" stop-color="#B58656"/>
</linearGradient>
<linearGradient id="paint3_linear_507_35428" x1="9.12797" y1="19.369" x2="10.0914" y2="16.1846" gradientUnits="userSpaceOnUse">
<stop stop-color="#EBD9AD"/>
<stop offset="0.5" stop-color="#FEF2D0"/>
<stop offset="1" stop-color="#B58656"/>
</linearGradient>
</defs>
</svg>
