<svg width="20" height="16" viewBox="0 0 20 16" fill="none" xmlns="http://www.w3.org/2000/svg">
<path d="M19.933 4.63288C19.7671 3.71963 19.3012 2.86603 18.6172 2.23794C18.2295 1.8801 17.84 1.52039 17.4523 1.16255C17.087 0.821477 16.6807 0.532593 16.2241 0.325715C15.7805 0.122565 15.3034 0.0144663 14.8151 0.00141997C14.1273 -0.0172177 13.4601 0.148658 12.8395 0.437541C12.4928 0.603416 12.1368 0.717106 11.7883 0.87739C11.1863 1.15695 10.5862 1.44025 9.99351 1.73845C9.4232 1.45516 8.85289 1.17559 8.27698 0.903483C7.91169 0.730152 7.52961 0.609008 7.16618 0.435677C6.59587 0.171023 5.98269 0.00887503 5.35087 0.00141997C4.75447 -0.00603509 4.1562 0.11511 3.62316 0.387219C3.25786 0.571732 2.92611 0.815885 2.62791 1.09359C2.20483 1.48684 1.7799 1.87823 1.35496 2.26962C0.825648 2.76725 0.426802 3.40093 0.206878 4.09425C0.0726869 4.5136 0.0055913 4.94972 0 5.38957V5.43616C0.0055913 5.9487 0.0969158 6.4575 0.285156 6.93463C0.473396 7.41734 0.760416 7.86278 1.12012 8.23554C1.24872 8.36786 1.38478 8.49274 1.52083 8.61575C1.89731 8.95309 2.28684 9.27552 2.67264 9.60168C2.87393 9.77128 3.0808 9.93529 3.28955 10.0974C3.49083 10.2503 3.67907 10.4161 3.85613 10.5951C3.80954 10.8169 3.85613 11.0461 3.96982 11.2418C4.07606 11.4244 4.23261 11.5885 4.40967 11.704C4.56063 11.8009 4.7321 11.8606 4.91289 11.8587C5.11045 11.8587 5.29682 11.7879 5.45338 11.6723C5.54843 11.6034 5.62112 11.5214 5.70871 11.4412C6.08892 11.0852 6.47472 10.7367 6.86052 10.3863C7.39729 9.89802 7.93591 9.41157 8.47268 8.92327C8.87525 8.5561 9.28155 8.19081 9.67854 7.81992C9.72513 7.77891 9.77172 7.71927 9.83136 7.69691C9.87423 7.68386 9.90778 7.73046 9.9376 7.75468C9.91151 7.79569 9.88355 7.83483 9.84814 7.86837C9.5108 8.20385 9.16973 8.53001 8.8473 8.88226C8.6926 9.04068 8.53046 9.19165 8.37204 9.34448C7.71599 9.97443 7.05808 10.6025 6.40763 11.2362C6.0796 11.5568 5.74972 11.8755 5.43288 12.2054C5.34342 12.3004 5.25209 12.3955 5.17195 12.4998C5.11604 12.5707 5.08808 12.6657 5.06572 12.7533C5.01726 12.9639 5.04521 13.1876 5.14772 13.3777C5.2465 13.564 5.40492 13.7225 5.58571 13.8268C5.78513 13.9424 6.02556 13.9797 6.24921 13.9256C6.34612 13.9014 6.45049 13.8697 6.52877 13.8063C6.72074 13.6591 6.90339 13.4969 7.0879 13.3404C8.00301 12.5427 8.90135 11.7264 9.79968 10.91C10.0364 10.6901 10.2824 10.4776 10.5098 10.2484C10.8192 9.94088 11.1099 9.62591 11.4342 9.33329C11.4808 9.28856 11.5647 9.28484 11.6243 9.26806C11.6019 9.33889 11.5665 9.3948 11.5143 9.44885C11.1584 9.80483 10.7987 10.1589 10.4501 10.5205C10.3868 10.5857 10.3271 10.6528 10.2638 10.7162C9.60585 11.3592 8.94235 12.0003 8.29003 12.6489C8.05892 12.88 7.82595 13.1111 7.60603 13.3534C7.54825 13.4205 7.47743 13.4932 7.44574 13.5771C7.38238 13.7374 7.35069 13.9088 7.36933 14.0822C7.41033 14.5034 7.77377 14.8743 8.19311 14.9246C8.40558 14.9507 8.62924 14.9004 8.81002 14.7848C8.95353 14.6823 9.08772 14.5649 9.22191 14.4512C9.66549 14.0691 10.1016 13.674 10.5359 13.2826C11.0559 12.8129 11.5721 12.3395 12.0884 11.8662C12.4052 11.5717 12.7034 11.2511 13.0054 10.9417C13.0408 10.9082 13.0799 10.8672 13.1246 10.8504C13.1638 10.8374 13.1861 10.8802 13.2104 10.9026C13.175 10.9641 13.1284 11.0181 13.078 11.0685C12.1294 12.0302 11.1789 12.99 10.2302 13.9517C10.0699 14.112 9.94692 14.3095 9.91151 14.5351C9.87982 14.7419 9.93014 14.9488 10.0327 15.1277C10.1333 15.3011 10.2749 15.4539 10.4371 15.5732C10.6291 15.713 10.8546 15.7968 11.0931 15.7801C11.341 15.7633 11.5591 15.6421 11.7324 15.4688C14.1087 13.0683 16.485 10.6678 18.8557 8.26349C19.2602 7.8516 19.5714 7.35398 19.7634 6.80976C20.0094 6.11457 20.0616 5.35975 19.9292 4.63474L19.933 4.63288ZM4.14501 10.0974C3.99405 9.95207 3.83377 9.81415 3.66603 9.68555C3.43119 9.50476 3.20009 9.31839 2.97457 9.12642C2.56641 8.78348 2.15451 8.44055 1.76126 8.08084C1.57302 7.90938 1.3941 7.72859 1.24313 7.52358C0.900199 7.06509 0.678411 6.52087 0.594541 5.95429C0.495762 5.29079 0.583359 4.60306 0.836831 3.98242C1.04184 3.48107 1.35682 3.02631 1.75567 2.65729C2.18247 2.26217 2.60927 1.86705 3.03794 1.47193C3.36782 1.17 3.74431 0.916529 4.16365 0.756245C4.55504 0.609007 4.98185 0.54564 5.39933 0.556822C5.94355 0.571732 6.46913 0.722697 6.9593 0.955668C7.31342 1.12341 7.68244 1.24082 8.03469 1.40856C8.49132 1.6229 8.94421 1.84468 9.39711 2.06647C9.26105 2.15407 9.12686 2.24539 8.99826 2.34417C8.63669 2.61628 8.25835 2.86603 7.89305 3.13441C7.60976 3.32638 7.33392 3.51275 7.08417 3.74759C6.91457 3.90787 6.75242 4.09798 6.65551 4.31045C6.56977 4.49682 6.53995 4.70743 6.59959 4.90685C6.69092 5.21437 6.95557 5.46971 7.27055 5.53867C7.52216 5.59644 7.78868 5.55358 8.03097 5.47344C8.31985 5.37652 8.59196 5.22555 8.83611 5.04663C9.45488 4.57137 10.0792 4.09984 10.6999 3.62644C10.7297 3.60222 10.7632 3.5929 10.8024 3.5929C10.8508 3.60035 10.8844 3.64322 10.8769 3.69354C10.8359 3.742 10.7819 3.77741 10.739 3.82214C10.2973 4.26572 9.84068 4.69625 9.38592 5.12678C7.93778 6.49851 6.47286 7.85346 5.0303 9.22892C4.7321 9.51408 4.4339 9.79924 4.14501 10.0937V10.0974ZM19.1987 6.7408C19.029 7.1676 18.7718 7.56085 18.4476 7.88701C16.1123 10.2577 13.7695 12.6228 11.4286 14.988C11.3522 15.0625 11.2907 15.1371 11.1919 15.1855C11.1043 15.2302 11.0074 15.2358 10.9142 15.2023C10.7837 15.1538 10.6719 15.0495 10.5843 14.9432C10.5098 14.8519 10.4464 14.7419 10.465 14.6208C10.4818 14.5034 10.5676 14.4083 10.6477 14.3282C11.5908 13.3721 12.5357 12.4178 13.4788 11.4617C13.585 11.3555 13.6856 11.2362 13.7378 11.0927C13.7881 10.9548 13.7825 10.7982 13.7192 10.664C13.6577 10.5373 13.5533 10.4292 13.4359 10.3546C13.3203 10.282 13.1787 10.2521 13.0445 10.2838C12.8842 10.3192 12.7407 10.4236 12.6251 10.5373C12.3307 10.8355 12.0511 11.1411 11.7436 11.4282C11.2926 11.8438 10.8378 12.2594 10.383 12.6713C9.8295 13.1708 9.27783 13.6759 8.70938 14.1586C8.59755 14.2443 8.51368 14.3468 8.36831 14.3692C8.20243 14.399 8.05892 14.3002 7.97319 14.166C7.90423 14.0598 7.90609 13.9182 7.95828 13.8063C7.98996 13.7579 8.03283 13.7187 8.07011 13.6759C8.28258 13.4504 8.50436 13.2304 8.72429 13.0105C9.35797 12.3806 9.9991 11.7599 10.6384 11.1374C10.7148 11.0629 10.7875 10.9846 10.8602 10.9082C11.2031 10.5503 11.5572 10.2037 11.9057 9.85328C12.0045 9.75451 12.0847 9.64082 12.1368 9.51035C12.1909 9.3743 12.2039 9.2252 12.1536 9.08541C12.1052 8.94936 11.9971 8.84312 11.8685 8.78162C11.751 8.72943 11.6113 8.72198 11.4864 8.73689C11.341 8.75553 11.1919 8.80585 11.082 8.90649C10.7316 9.21774 10.4166 9.56254 10.0848 9.89056C9.891 10.0844 9.68413 10.267 9.48284 10.4516C8.62364 11.2325 7.76445 12.0097 6.89593 12.7794C6.68905 12.9602 6.48404 13.1447 6.27157 13.318C6.21193 13.3721 6.12433 13.3926 6.04606 13.3944C5.93609 13.3944 5.84477 13.3404 5.76649 13.2696C5.68635 13.195 5.61553 13.1 5.60248 12.9881C5.59689 12.9192 5.60434 12.8409 5.65466 12.7887C5.76649 12.6583 5.8895 12.5371 6.01064 12.4141C7.02453 11.4002 8.06824 10.418 9.0989 9.42276C9.15668 9.36498 9.21819 9.30907 9.27223 9.24942C9.59094 8.9009 9.93201 8.57847 10.2656 8.24486C10.3719 8.13303 10.4632 8.00257 10.4893 7.84787C10.5154 7.70064 10.4762 7.54967 10.3905 7.42853C10.2619 7.2496 10.0606 7.11728 9.83323 7.13032C9.6189 7.14337 9.45302 7.26079 9.30765 7.40802C8.71497 7.96156 8.10924 8.50206 7.50911 9.04814C6.78224 9.70978 6.04978 10.3677 5.32851 11.0368C5.23159 11.1225 5.15331 11.2287 5.03217 11.2772C4.95389 11.3107 4.86629 11.307 4.78988 11.2735C4.67805 11.225 4.583 11.1318 4.50845 11.0368C4.44135 10.951 4.3873 10.8448 4.40408 10.7311C4.41899 10.6305 4.48236 10.5541 4.55132 10.4851C4.8812 10.1534 5.21668 9.83092 5.55402 9.50849C7.10095 8.03798 8.66838 6.58983 10.2134 5.11932C10.5116 4.83416 10.8117 4.54714 11.1025 4.25453C11.149 4.20608 11.1994 4.16694 11.2478 4.12221C11.3317 4.04393 11.3951 3.95074 11.4137 3.83705C11.4435 3.66931 11.4584 3.46802 11.3895 3.30588C11.3354 3.17355 11.2143 3.09341 11.0801 3.058C10.9142 3.01513 10.7297 3.02818 10.5676 3.0785C10.5303 3.09527 10.4986 3.12509 10.4669 3.14932C9.87423 3.58917 9.28155 4.02715 8.68888 4.46514C8.43913 4.65524 8.16329 4.83416 7.86696 4.94413C7.71413 4.99818 7.52216 5.04291 7.3656 4.98513C7.26682 4.94972 7.18482 4.86958 7.14754 4.7708C7.11399 4.67947 7.15127 4.57696 7.19414 4.49496C7.26869 4.36077 7.38238 4.24149 7.49607 4.13898C7.72531 3.92837 7.97505 3.76436 8.23039 3.58917C8.58451 3.32824 8.95167 3.08409 9.30578 2.8213C9.52943 2.64983 9.76427 2.49514 10.0121 2.36281C10.6551 2.0292 11.3186 1.71795 11.9766 1.41043C12.3214 1.24642 12.6829 1.13086 13.0296 0.968714C13.3613 0.810294 13.7117 0.689149 14.0733 0.622054C14.5448 0.534457 15.048 0.536321 15.514 0.661193C16.0787 0.812158 16.5875 1.12527 17.018 1.51666C17.4337 1.9006 17.8493 2.28453 18.2649 2.66847C18.8613 3.22201 19.2639 3.9731 19.3999 4.77452C19.5136 5.43243 19.4521 6.1183 19.2042 6.7408H19.1987Z" fill="white"/>
</svg>
