<svg width="24" height="15" viewBox="0 0 24 15" fill="none" xmlns="http://www.w3.org/2000/svg">
<g clip-path="url(#clip0_890_86111)">
<path d="M23.4013 10.1962C23.0702 10.0158 22.7756 10.1483 22.6819 10.5091C22.7413 10.9088 23.1707 11.3358 23.1341 11.772C23.0588 12.2082 22.7162 12.4389 22.3439 12.6147C21.3208 13.0829 20.1698 13.1834 19.0599 13.1628C16.324 13.2085 13.5675 12.6444 10.948 11.8839C8.67338 11.3084 6.449 10.4611 4.39362 9.32383C4.85037 8.05863 5.77757 7.03779 7.04963 6.56734C7.47669 6.66097 7.86493 6.85738 8.30798 6.90305C9.02736 7.0081 9.63484 6.78886 10.2971 6.55364C10.8589 6.80257 11.3248 7.11316 11.7861 7.51967C11.1467 8.41718 10.827 9.38093 10.7082 10.4726C10.9686 10.4726 11.2289 10.4726 11.4893 10.4726C11.6126 8.77345 12.7659 7.17025 14.3645 6.56734C14.7984 6.66097 15.1867 6.85966 15.6343 6.90534C16.3537 7.00582 16.9611 6.78658 17.6257 6.55592C18.5689 6.97842 19.3933 7.57448 19.9003 8.49711C20.2497 9.09774 20.3913 9.7509 20.4987 10.4315C20.7613 10.4315 21.0217 10.4292 21.2843 10.4246C21.1655 9.22106 20.7453 8.07462 19.9095 7.18395C19.4687 6.68838 18.9274 6.33211 18.3611 5.99412C19.7108 4.7586 19.8272 2.65755 18.6808 1.24847C17.5184 -0.176595 15.3077 -0.425524 13.8666 0.723206C12.6791 1.64128 12.2223 3.29243 12.7659 4.69238C12.9509 5.20165 13.2774 5.60588 13.6497 5.99183C13.1769 6.26132 12.7499 6.56049 12.3457 6.92361C11.9392 6.57419 11.5235 6.27273 11.0576 6.00554C11.9414 5.10345 12.3525 3.89534 12.0488 2.64613C11.6994 1.08632 10.224 -0.0441368 8.63227 -0.000745412C7.21406 -0.00302917 5.9146 0.915041 5.43501 2.24419C4.9303 3.5642 5.30484 5.03037 6.32339 5.99412C5.09701 6.66782 4.2132 7.61558 3.70621 8.92646C2.78585 8.37151 1.84494 7.69323 1.21463 6.80942C0.99082 6.45315 0.725904 6.01239 0.967982 5.59674C1.17352 5.27245 1.62114 5.10117 1.92031 4.86137C2.14412 4.55763 1.90661 4.05749 1.49781 4.16026C0.72362 4.38635 0.120708 4.97099 0.00195312 5.78858V6.25218C0.0384932 6.41661 0.0818846 6.57876 0.129844 6.74091C0.796701 8.11344 2.07104 8.9767 3.33624 9.74633C5.69536 11.1691 8.24175 12.0758 10.8772 12.834C13.1564 13.4848 15.495 13.8776 17.8564 14.0535H19.9391C21.145 13.9393 22.6751 13.7772 23.5566 12.8431C24.2851 12.0986 24.0339 10.9133 23.4013 10.1917V10.1962ZM13.4327 4.2105C13.0102 2.88136 13.7936 1.44487 15.0656 0.951581C16.4861 0.392061 18.1144 1.23477 18.5529 2.67582C19.0393 4.11915 18.071 5.72007 16.6117 6.06035C15.2483 6.40063 13.8255 5.5465 13.4327 4.2105ZM6.07675 4.08946C5.7319 2.80142 6.50381 1.4266 7.73247 0.960716C8.55234 0.643274 9.46584 0.752894 10.1829 1.25989C11.1307 1.91533 11.5989 3.14856 11.2289 4.25618C10.8726 5.41861 9.68737 6.22934 8.47698 6.12657C7.33281 6.04893 6.35536 5.19709 6.07675 4.08946Z" fill="white"/>
</g>
<defs>
<clipPath id="clip0_890_86111">
<rect width="24" height="14.0588" fill="white"/>
</clipPath>
</defs>
</svg>
