<svg width="24" height="24" viewBox="0 0 24 24" fill="none" xmlns="http://www.w3.org/2000/svg">
<path d="M11.9978 0C5.38221 0 0 5.38442 0 12C0 18.6156 5.38221 24 11.9978 24C18.6134 24 23.9978 18.6156 23.9978 12C23.9978 5.38442 18.6156 0 11.9978 0ZM11.9978 22.3157C6.31055 22.3157 1.68208 17.6894 1.68208 12C1.68208 6.31055 6.31055 1.6865 11.9978 1.6865C17.685 1.6865 22.3157 6.31276 22.3157 12.0022C22.3157 17.6917 17.685 22.3179 11.9978 22.3179V22.3157Z" fill="white"/>
<path d="M12.0106 9.66211C10.68 9.66211 9.60352 10.7386 9.60352 12.0692C9.60352 13.3998 10.68 14.4763 12.0106 14.4763C13.3412 14.4763 14.4177 13.3998 14.4177 12.0692C14.4177 10.7386 13.3412 9.66211 12.0106 9.66211Z" fill="white"/>
</svg>
