<svg width="24" height="24" viewBox="0 0 24 24" fill="none" xmlns="http://www.w3.org/2000/svg">
<g clip-path="url(#clip0_890_88605)">
<path d="M16.3508 10.5773C16.2896 9.89514 15.9202 9.27875 15.3605 8.88898C14.7509 8.43801 13.9033 8.37229 13.1827 8.5128C12.6003 8.6329 12.2037 8.98642 11.7754 9.37167C11.4378 9.07933 11.1296 8.79833 10.7103 8.6261C9.63619 8.191 8.33315 8.52413 7.57399 9.3898C7.25673 9.75011 7.19782 10.2827 7.17969 10.7427C7.18195 11.7466 7.64198 12.61 8.26743 13.3646C9.24188 14.5317 10.5404 15.3158 11.7596 16.1746C13.0331 15.3226 14.4925 14.3912 15.4353 13.1675C16.0222 12.4264 16.4097 11.5381 16.3508 10.5773ZM15.331 12.0752C14.5379 13.5074 13.0898 14.4388 11.7686 15.3339C10.5313 14.4954 9.05379 13.5232 8.29463 12.2021C7.90485 11.5358 7.66238 10.6384 8.11334 9.94047C8.73653 8.93883 10.3274 8.83232 11.0978 9.71839C11.329 9.92461 11.533 10.4096 11.8842 10.3438C12.2627 9.98126 12.5233 9.48951 13.0331 9.29008C13.7968 8.97282 14.6398 9.06574 15.2177 9.68666C15.893 10.3438 15.7253 11.316 15.331 12.0729V12.0752Z" fill="white" stroke="white" stroke-width="0.2"/>
<path d="M21.7152 15.6011C21.2801 15.3156 20.8178 15.3065 20.3147 15.3405C20.2603 14.7649 20.1493 14.2392 19.8025 13.7656C19.3629 13.1446 19.0207 12.5169 19.125 11.726C19.2043 11.0802 19.5555 10.6292 19.8932 10.0989C20.1878 9.65704 20.2444 9.17889 20.3102 8.66674C20.8404 8.65767 21.3073 8.71206 21.7605 8.37894C22.6103 7.826 22.8097 6.60455 22.216 5.791C21.6426 4.97519 20.4076 4.81202 19.6303 5.42841C19.2972 5.67542 19.1431 6.01308 18.9663 6.3734C18.4655 6.14678 17.9851 5.99495 17.4276 6.05614C16.6571 6.10599 15.9637 6.16491 15.302 5.67996C14.7196 5.29245 14.5066 4.73497 14.2029 4.13898C13.9831 3.68801 13.6182 3.40021 13.2239 3.11241C13.489 2.68185 13.7247 2.28527 13.6817 1.75499C13.6907 0.721631 12.7299 -0.100979 11.7101 0.0100623C10.7425 0.0893774 9.9856 0.952776 10.074 1.92948C10.0649 2.39858 10.3028 2.72717 10.5453 3.10109C10.1805 3.38889 9.82923 3.62456 9.60035 4.04607C9.32614 4.52649 9.20151 5.14515 8.72788 5.47601C8.0775 5.89524 7.45658 6.30088 6.64756 6.0992C5.93373 5.93377 5.31053 6.06973 4.65335 6.353C4.33608 5.60517 3.74916 5.0409 2.89483 5.06356C2.07901 5.03184 1.36064 5.58025 1.13176 6.35527C0.882483 7.17335 1.27453 8.11606 2.04502 8.49224C2.45066 8.70753 2.87896 8.65541 3.32539 8.66221C3.36618 9.21288 3.4523 9.71823 3.78542 10.1737C4.23412 10.806 4.60803 11.402 4.50832 12.2178C4.43581 12.9248 4.03016 13.3735 3.66985 13.9446C3.40244 14.3525 3.34351 14.8012 3.28006 15.2748C2.75432 15.2431 2.27163 15.2318 1.81614 15.5377C0.871157 16.1178 0.717051 17.5682 1.5102 18.3341C2.10846 18.9686 3.14183 19.0638 3.85113 18.5585C4.20692 18.3137 4.37461 17.9715 4.5831 17.6089C4.94341 17.754 5.27428 17.9035 5.66632 17.9511C6.25552 18.0305 6.90364 17.7585 7.46564 17.9239C8.25199 18.171 8.9545 18.5743 9.29442 19.3607C9.60488 20.0632 9.91081 20.4756 10.5476 20.9107C9.9244 21.6631 9.87909 22.7554 10.5816 23.4692C11.3407 24.242 12.6642 24.1581 13.3214 23.3015C13.8675 22.5854 13.7814 21.586 13.2035 20.913C13.7179 20.5595 14.0964 20.1652 14.3457 19.5828C14.6425 18.9142 15.0686 18.3454 15.7688 18.069C16.3897 17.8084 16.9517 17.9262 17.5953 17.9625C18.0961 17.9942 18.5176 17.8197 18.9641 17.6293C19.1657 18.0531 19.3606 18.4429 19.7844 18.6854C20.5504 19.1635 21.629 18.9868 22.1752 18.2593C22.8278 17.4435 22.6193 16.145 21.7197 15.5989L21.7152 15.6011ZM20.1266 5.79553C20.5753 5.53266 21.1849 5.58478 21.5611 5.95189C22.0483 6.37793 22.1185 7.16202 21.6812 7.6515C21.2257 8.2271 20.2966 8.25656 19.8184 7.69456C19.2949 7.11443 19.4467 6.18078 20.1243 5.7978L20.1266 5.79553ZM11.309 0.72843C11.9209 0.38171 12.6982 0.680841 12.995 1.29497C13.2851 1.91362 13.0154 2.65692 12.3968 2.94019C11.7668 3.26878 10.9464 2.89713 10.713 2.24675C10.5068 1.65528 10.7515 1.01623 11.309 0.72843ZM3.50215 7.93024C2.8699 8.31322 1.9997 8.02768 1.73229 7.33424C1.44449 6.71559 1.81161 5.95643 2.428 5.71395C3.05119 5.48054 3.72876 5.7638 4.00296 6.36433C4.2749 6.92181 4.0347 7.62431 3.50215 7.93024ZM3.42283 18.137C2.78604 18.5245 1.93851 18.2095 1.65977 17.5319C1.4173 16.8838 1.70963 16.2198 2.32602 15.9275C2.82004 15.7258 3.40018 15.8572 3.74236 16.2697C4.25904 16.8362 4.08228 17.7698 3.42283 18.1392V18.137ZM12.6619 23.1315C12.177 23.5553 11.445 23.5145 11.0054 23.0477C10.4116 22.4902 10.5816 21.4773 11.2886 21.0988C11.8348 20.7861 12.5441 20.9742 12.8908 21.4886C13.2556 22.003 13.1491 22.735 12.6619 23.1293V23.1315ZM18.5969 17.1489C17.6746 17.6611 16.92 17.1467 15.9501 17.4095C14.9643 17.6271 14.2459 18.3522 13.8539 19.2587C13.5888 19.866 13.2579 20.1924 12.6823 20.5119C12.0705 20.3442 11.6807 20.3465 11.0665 20.5119C10.6949 20.2785 10.3504 20.0723 10.1216 19.6825C9.7907 19.1114 9.61622 18.5517 9.08367 18.112C8.63724 17.7517 8.02311 17.4526 7.4611 17.3302C6.70421 17.1603 6.03343 17.55 5.33546 17.2917C5.02273 17.1761 4.69867 17.0696 4.60123 16.7116C4.46299 16.2243 4.16386 15.8799 3.88965 15.4697C3.77635 14.6426 4.25904 14.1463 4.66242 13.5027C5.29014 12.4965 5.21989 11.2071 4.53778 10.2485C4.15254 9.69557 3.81714 9.19702 3.93044 8.48545C4.27263 8.00049 4.61483 7.62205 4.73267 7.01019C5.02953 6.86062 5.32639 6.68839 5.65951 6.63174C6.25098 6.52523 6.86737 6.84022 7.47243 6.71105C8.07069 6.58415 8.65083 6.25783 9.14258 5.89751C9.92893 5.30151 9.82017 4.3384 10.6269 3.7764C11.0869 3.37076 11.4903 3.67895 12.0342 3.6155C12.4058 3.61097 12.7095 3.45913 13.0336 3.70388C13.8267 4.22056 13.838 5.09756 14.5337 5.8046C15.2091 6.5207 16.1472 6.76091 17.1081 6.6544C17.7698 6.59321 18.7986 6.60454 19.0071 7.40449C19.1454 7.81013 19.3788 8.10247 19.6802 8.39933C19.7028 8.77098 19.7187 9.12223 19.5646 9.47122C19.3334 9.97657 18.9459 10.3867 18.7443 10.9148C18.3681 11.8303 18.5063 12.8818 19.0502 13.6998C19.4218 14.2686 19.7889 14.7445 19.6983 15.4697C19.5623 15.7915 19.2564 16.0272 19.1204 16.358C18.9663 16.6368 18.9278 17.0333 18.5969 17.1557V17.1489ZM21.1056 18.3205C20.4416 18.5471 19.6983 18.1075 19.5374 17.4345C19.3878 16.8407 19.6983 16.2697 20.2354 16.0091C20.8291 15.719 21.5769 16.0226 21.8511 16.6073C22.1752 17.269 21.8081 18.1098 21.1033 18.3205H21.1056Z" fill="white" stroke="white" stroke-width="0.2"/>
</g>
<defs>
<clipPath id="clip0_890_88605">
<rect width="24" height="24" fill="white"/>
</clipPath>
</defs>
</svg>
