<svg width="22" height="22" viewBox="0 0 22 22" fill="none" xmlns="http://www.w3.org/2000/svg">
<g clip-path="url(#clip0_347_31981)">
<path fill-rule="evenodd" clip-rule="evenodd" d="M19.4408 16.9962C20.7348 15.2507 21.5 13.0897 21.5 10.75C21.5 4.95097 16.7989 0.25 11 0.25C5.20097 0.25 0.5 4.95097 0.5 10.75C0.5 16.5489 5.20097 21.25 11 21.25C14.0425 21.25 16.7826 19.956 18.7004 17.8883C18.963 17.605 19.2103 17.3073 19.4408 16.9962ZM18.8587 16C19.8638 14.4984 20.4499 12.6926 20.4499 10.75C20.4499 5.53091 16.2191 1.29998 10.9999 1.29998C5.78091 1.29998 1.54998 5.53091 1.54998 10.75C1.54998 12.6927 2.13613 14.4984 3.14134 16C4.40949 14.1055 6.34457 12.695 8.61073 12.1047C7.51655 11.3465 6.79998 10.082 6.79998 8.64993C6.79998 6.33036 8.68043 4.44991 11 4.44991C13.3196 4.44991 15.2 6.33036 15.2 8.64993C15.2 10.0819 14.4833 11.3465 13.3893 12.1046C15.6553 12.695 17.5905 14.1054 18.8587 16ZM18.1823 16.8916C16.7087 14.4685 14.0434 12.85 11.0001 12.85C7.95666 12.85 5.29127 14.4685 3.81769 16.8917C5.55088 18.9167 8.12552 20.2 11 20.2C13.8745 20.2 16.4491 18.9166 18.1823 16.8916ZM11 11.8C12.7397 11.8 14.15 10.3898 14.15 8.64993C14.15 6.9102 12.7398 5.49989 11 5.49989C9.26016 5.49989 7.84995 6.91031 7.84995 8.65004C7.84995 10.3898 9.26027 11.8 11 11.8Z" fill="white"/>
</g>
<defs>
<clipPath id="clip0_347_31981">
<rect width="21" height="21" fill="white" transform="translate(0.5 0.25)"/>
</clipPath>
</defs>
</svg>
