<svg width="32" height="32" viewBox="0 0 32 32" fill="none" xmlns="http://www.w3.org/2000/svg">
<g clip-path="url(#clip0_233_39791)">
<path fill-rule="evenodd" clip-rule="evenodd" d="M28.8622 25.5181C30.834 22.8583 32 19.5653 32 16C32 7.16338 24.8365 0 16 0C7.16338 0 0 7.16338 0 16C0 24.8365 7.16338 32 16 32C20.6361 32 24.8116 30.0282 27.734 26.8774C28.1341 26.4457 28.511 25.992 28.8622 25.5181ZM27.9751 24C29.5067 21.7118 30.3999 18.9602 30.3999 16C30.3999 8.04711 23.9529 1.59997 15.9998 1.59997C8.04711 1.59997 1.59997 8.04711 1.59997 16C1.59997 18.9603 2.49315 21.7118 4.0249 24C5.95732 21.1131 8.90602 18.9639 12.3592 18.0643C10.6919 16.9089 9.59997 14.982 9.59997 12.7999C9.59997 9.26532 12.4654 6.39986 16 6.39986C19.5346 6.39986 22.4 9.26532 22.4 12.7999C22.4 14.9819 21.3079 16.9089 19.6408 18.0641C23.0938 18.9639 26.0427 21.1129 27.9751 24ZM26.9445 25.3587C24.699 21.6662 20.6376 19.1999 16.0002 19.1999C11.3625 19.1999 7.30098 21.6662 5.05553 25.3589C7.69659 28.4445 11.6198 30.4 16 30.4C20.3801 30.4 24.3034 28.4443 26.9445 25.3587ZM16 17.6C18.651 17.6 20.8001 15.4511 20.8001 12.7999C20.8001 10.1489 18.6512 7.99983 16 7.99983C13.3488 7.99983 11.1999 10.149 11.1999 12.8001C11.1999 15.4511 13.349 17.6 16 17.6Z" fill="white"/>
</g>
<defs>
<clipPath id="clip0_233_39791">
<rect width="32" height="32" fill="white"/>
</clipPath>
</defs>
</svg>
