<svg width="58" height="58" viewBox="0 0 58 58" fill="none" xmlns="http://www.w3.org/2000/svg">
<path d="M3.47824 25.0067C3.18507 24.7132 3.0204 24.3152 3.0204 23.9003C3.0204 23.4854 3.18507 23.0875 3.47824 22.7939L10.8619 15.4097C10.8838 15.3785 10.9129 15.3531 10.9468 15.3355C10.9806 15.318 11.0181 15.3088 11.0563 15.3088C11.0944 15.3088 11.1319 15.318 11.1657 15.3355C11.1996 15.3531 11.2287 15.3785 11.2506 15.4097L19.3671 23.5262C19.5467 23.6958 19.7843 23.7903 20.0313 23.7903C20.2783 23.7903 20.5159 23.6958 20.6954 23.5262L28.8016 15.4085C28.8235 15.3776 28.8526 15.3524 28.8863 15.335C28.92 15.3176 28.9574 15.3085 28.9953 15.3085C29.0333 15.3085 29.0706 15.3176 29.1044 15.335C29.1381 15.3524 29.1671 15.3776 29.1891 15.4085L37.3068 23.5262C37.4864 23.6958 37.724 23.7903 37.971 23.7903C38.2179 23.7903 38.4556 23.6958 38.6351 23.5262L46.7406 15.4097C46.7617 15.3775 46.7905 15.3511 46.8243 15.3328C46.8581 15.3145 46.8959 15.3048 46.9344 15.3047C46.9728 15.3046 47.0107 15.314 47.0446 15.3321C47.0786 15.3502 47.1075 15.3764 47.1288 15.4084L54.5209 22.8012C54.6662 22.9465 54.7814 23.119 54.8601 23.3088C54.9387 23.4987 54.9792 23.7021 54.9792 23.9076C54.9792 24.1131 54.9387 24.3166 54.86 24.5064C54.7814 24.6962 54.6662 24.8687 54.5209 25.014C54.3756 25.1593 54.2031 25.2745 54.0132 25.3532C53.8234 25.4318 53.6199 25.4723 53.4145 25.4723C53.209 25.4723 53.0055 25.4318 52.8157 25.3532C52.6259 25.2745 52.4534 25.1593 52.3081 25.014L47.6007 20.3072C47.4246 20.1312 47.1858 20.0322 46.9368 20.0322H46.9362C46.6872 20.0322 46.4484 20.1312 46.2723 20.3072L38.1589 28.4323C38.1093 28.4814 38.0425 28.5089 37.9728 28.5089C37.9031 28.5089 37.8362 28.4814 37.7866 28.4323L29.6609 20.3072C29.4848 20.1312 29.2461 20.0323 28.9971 20.0322H28.9966C28.7476 20.0322 28.5088 20.1312 28.3327 20.3072L20.2192 28.4323C20.1697 28.4813 20.1028 28.5088 20.0331 28.5088C19.9634 28.5088 19.8965 28.4813 19.847 28.4323L11.72 20.306C11.6329 20.2188 11.5294 20.1496 11.4155 20.1024C11.3016 20.0552 11.1795 20.0309 11.0562 20.0309C10.9329 20.0309 10.8108 20.0552 10.6969 20.1024C10.583 20.1496 10.4795 20.2188 10.3924 20.306L5.69107 25.0067C5.39696 25.2989 4.99922 25.4629 4.58466 25.4629C4.17009 25.4629 3.77235 25.2989 3.47824 25.0067ZM47.1055 29.5791C47.0834 29.5564 47.057 29.5385 47.0278 29.5263C46.9986 29.5142 46.9673 29.508 46.9356 29.5082C46.9037 29.5079 46.8721 29.514 46.8426 29.5262C46.813 29.5384 46.7863 29.5563 46.7639 29.5791L38.6351 37.7201C38.459 37.8961 38.2203 37.995 37.9713 37.9951H37.9706C37.7217 37.995 37.4829 37.8961 37.3068 37.7201L29.1659 29.5791C29.1438 29.5564 29.1173 29.5385 29.0881 29.5263C29.0589 29.5142 29.0276 29.508 28.996 29.5082C28.964 29.5079 28.9324 29.514 28.9029 29.5262C28.8733 29.5384 28.8466 29.5563 28.8241 29.5791L20.6954 37.72C20.5193 37.8961 20.2806 37.995 20.0315 37.9951H20.031C19.782 37.995 19.5432 37.8961 19.3671 37.72L11.2268 29.5791C11.1786 29.5399 11.1184 29.5185 11.0563 29.5185C10.9941 29.5185 10.9339 29.5399 10.8857 29.5791L3.47824 36.9865C3.18465 37.28 3.01964 37.678 3.01953 38.0931C3.01942 38.5082 3.18421 38.9063 3.47765 39.1999C3.77108 39.4935 4.16914 39.6585 4.58423 39.6586C4.99933 39.6588 5.39747 39.494 5.69107 39.2005L10.3924 34.4998C10.4795 34.4126 10.583 34.3434 10.6969 34.2963C10.8108 34.2491 10.9329 34.2248 11.0562 34.2248C11.1795 34.2248 11.3016 34.2491 11.4155 34.2963C11.5294 34.3434 11.6329 34.4126 11.72 34.4998L19.8348 42.6139C19.8876 42.666 19.9589 42.6951 20.033 42.6949C20.1072 42.6946 20.1783 42.6651 20.2308 42.6127L28.3327 34.501C28.4199 34.4138 28.5234 34.3446 28.6374 34.2974C28.7514 34.2502 28.8735 34.2259 28.9968 34.2259C29.1202 34.2259 29.2423 34.2502 29.3562 34.2974C29.4702 34.3446 29.5737 34.4138 29.6609 34.501L37.7738 42.6138C37.8268 42.666 37.8981 42.6951 37.9724 42.6949C38.0467 42.6946 38.1179 42.6651 38.1705 42.6126L46.2724 34.501C46.4485 34.325 46.6873 34.226 46.9363 34.2259H46.9368C47.1858 34.226 47.4246 34.325 47.6007 34.501L52.3081 39.2079C52.6017 39.5013 52.9999 39.6661 53.415 39.666C53.8301 39.6658 54.2281 39.5008 54.5216 39.2072C54.815 38.9136 54.9798 38.5155 54.9797 38.1004C54.9795 37.6853 54.8145 37.2872 54.5209 36.9938L47.1055 29.5791Z" fill="white"/>
</svg>
