<svg width="58" height="58" viewBox="0 0 58 58" fill="none" xmlns="http://www.w3.org/2000/svg">
<path d="M15.55 11.0208C22.1037 11.0208 27.4353 18.1736 27.4353 26.9654V48.5443C27.4365 48.9587 27.6019 49.3556 27.8952 49.6482C28.1886 49.9408 28.586 50.1051 29.0004 50.1051C29.4147 50.1051 29.8121 49.9408 30.1055 49.6482C30.3989 49.3556 30.5643 48.9587 30.5654 48.5443V26.9654C30.5654 18.1736 35.897 11.0208 42.4508 11.0208C44.4471 11.0801 46.3864 11.7001 48.047 12.8099C49.7075 13.9197 51.0221 15.4744 51.8405 17.2963C51.9415 17.5746 52.1163 17.8202 52.3463 18.0066C52.5763 18.1931 52.8527 18.3134 53.1459 18.3546C53.439 18.3958 53.7379 18.3564 54.0104 18.2406C54.2829 18.1248 54.5187 17.937 54.6925 17.6973C54.8309 17.5032 54.9225 17.2796 54.9602 17.0442C54.998 16.8088 54.9808 16.5678 54.9101 16.3401C53.216 10.852 47.226 7.89062 42.4508 7.89062C37.3478 7.89062 32.6324 11.1736 29.8373 16.6721C29.7503 16.8162 29.6275 16.9354 29.4809 17.0182C29.3343 17.1009 29.1687 17.1444 29.0004 17.1444C28.832 17.1444 28.6665 17.1009 28.5199 17.0182C28.3733 16.9354 28.2505 16.8162 28.1634 16.6721C25.3683 11.1736 20.653 7.89062 15.55 7.89062C10.7747 7.89062 4.7847 10.852 3.09125 16.3401C3.02154 16.5696 3.00531 16.8121 3.04379 17.0488C3.08227 17.2856 3.17444 17.5104 3.31325 17.706C3.45205 17.9017 3.63379 18.0629 3.84456 18.1774C4.05532 18.292 4.2895 18.3567 4.52916 18.3668C4.8815 18.3954 5.23332 18.3056 5.5288 18.1116C5.82429 17.9175 6.04653 17.6304 6.16025 17.2957C6.97879 15.474 8.29348 13.9194 9.95398 12.8097C11.6145 11.7001 13.5537 11.0801 15.55 11.0208Z" fill="white"/>
</svg>
