<svg width="58" height="58" viewBox="0 0 58 58" fill="none" xmlns="http://www.w3.org/2000/svg">
<path d="M12.9372 34.5382C15.5645 34.5336 18.0828 33.4871 19.9394 31.6282C21.7961 29.7692 22.8395 27.2497 22.8408 24.6224C22.8465 22.9597 22.43 21.3229 21.6303 19.8652C20.8306 18.4075 19.674 17.1766 18.2687 16.2881C18.1161 16.1914 17.9947 16.0527 17.919 15.8887C17.8433 15.7247 17.8165 15.5423 17.8419 15.3635C17.8672 15.1847 17.9437 15.017 18.062 14.8805C18.1803 14.744 18.3355 14.6446 18.5089 14.5941C23.5751 13.1699 28.8517 12.6452 34.0991 13.0438C40.576 13.5749 46.8817 15.3933 52.6469 18.3923C52.9162 18.5431 53.2239 18.611 53.5316 18.5877C53.8393 18.5643 54.1333 18.4507 54.3767 18.261C54.6201 18.0713 54.8021 17.814 54.8999 17.5214C54.9977 17.2287 55.007 16.9137 54.9266 16.6157C54.8756 16.4159 54.7834 16.2289 54.6561 16.0667C54.5287 15.9045 54.3689 15.7707 54.1869 15.6737C48.054 12.3668 41.2879 10.4021 34.3376 9.91005C33.236 9.85563 32.1539 9.82833 31.0914 9.82812C21.5852 9.82812 13.6623 12.013 7.505 16.3388C6.25163 17.1735 5.20121 18.2784 4.43094 19.5723C3.66066 20.8662 3.19012 22.3163 3.05389 23.816C3.03189 24.0856 3.02109 24.3544 3.0215 24.6223C3.0244 27.2513 4.07002 29.7717 5.92895 31.6306C7.78788 33.4896 10.3083 34.5352 12.9372 34.5382ZM9.14024 19.014C10.2579 18.2484 11.5825 17.8419 12.9372 17.8488C14.5649 17.847 16.1392 18.4298 17.3734 19.4909C18.6077 20.5521 19.4199 22.0212 19.6622 23.6308C19.9045 25.2403 19.5608 26.8834 18.6937 28.2609C17.8266 29.6385 16.4937 30.6589 14.9376 31.1364C13.3815 31.6139 11.7057 31.5168 10.2151 30.8628C8.72459 30.2088 7.51842 29.0414 6.81616 27.5729C6.1139 26.1045 5.96224 24.4327 6.38879 22.8619C6.81533 21.291 7.79172 19.9256 9.14024 19.014ZM45.064 23.4608C42.4367 23.4654 39.9184 24.5119 38.0618 26.3709C36.2051 28.2298 35.1617 30.7493 35.1604 33.3767C35.1546 35.0393 35.571 36.6762 36.3707 38.134C37.1704 39.5917 38.3272 40.8225 39.7326 41.7109C39.8851 41.8077 40.0065 41.9463 40.0822 42.1103C40.1579 42.2743 40.1847 42.4567 40.1593 42.6355C40.134 42.8143 40.0575 42.9821 39.9392 43.1185C39.8209 43.255 39.6657 43.3545 39.4923 43.4049C34.4259 44.8276 29.1495 45.3523 23.9021 44.9552C17.4252 44.4241 11.1195 42.6058 5.35427 39.6067C5.11592 39.4794 4.84997 39.4124 4.57973 39.4117C4.3172 39.4105 4.0587 39.4762 3.82862 39.6026C3.59854 39.7291 3.40447 39.9121 3.26474 40.1343C3.14929 40.3184 3.07284 40.5242 3.04013 40.7391C3.00743 40.9539 3.01915 41.1732 3.07459 41.3833C3.12561 41.5831 3.21774 41.7701 3.34511 41.9323C3.47248 42.0945 3.63227 42.2284 3.81429 42.3253C9.94709 45.6325 16.7133 47.5972 23.6636 48.089C34.6217 48.6276 43.6517 46.4696 50.4962 41.6602C51.7496 40.8256 52.8 39.7207 53.5703 38.4267C54.3405 37.1328 54.8111 35.6827 54.9473 34.183C54.9693 33.9141 54.9801 33.6453 54.9797 33.3767C54.9768 30.7478 53.9312 28.2273 52.0722 26.3684C50.2133 24.5094 47.6929 23.4638 45.064 23.4608H45.064ZM48.861 38.985C47.7433 39.7506 46.4187 40.1571 45.064 40.1502C43.4363 40.152 41.8621 39.5692 40.6278 38.5081C39.3936 37.4469 38.5814 35.9778 38.3391 34.3683C38.0968 32.7587 38.4405 31.1157 39.3076 29.7381C40.1747 28.3606 41.5076 27.3403 43.0637 26.8627C44.6198 26.3852 46.2956 26.4823 47.7861 27.1363C49.2766 27.7903 50.4828 28.9578 51.1851 30.4262C51.8873 31.8946 52.039 33.5664 51.6124 35.1372C51.1859 36.708 50.2095 38.0735 48.861 38.985Z" fill="white"/>
</svg>
