<svg width="58" height="58" viewBox="0 0 58 58" fill="none" xmlns="http://www.w3.org/2000/svg">
<path d="M25.2681 6.15152C25.5262 6.15147 25.7841 6.16453 26.0408 6.19065C27.9821 6.44436 29.7629 7.40147 31.0456 8.88057C32.3283 10.3597 33.0238 12.258 33.0003 14.2156L33.0113 41.5998C33.0317 43.1604 32.7848 44.713 32.2813 46.1903C31.6807 47.5048 30.8215 48.6849 29.7551 49.6602C28.6886 50.6355 27.4366 51.3861 26.0738 51.8671C25.7373 51.9593 25.4393 52.1573 25.224 52.4319C25.0086 52.7064 24.8874 53.043 24.8781 53.3918C24.8776 53.6377 24.9345 53.8804 25.0442 54.1005C25.1539 54.3206 25.3135 54.5121 25.5102 54.6597C25.7005 54.8057 25.9223 54.9053 26.1579 54.9506C26.3935 54.9959 26.6364 54.9857 26.8673 54.9207C29.9872 53.9942 32.6576 51.9534 34.3709 49.1864C34.4352 49.0629 34.5262 48.9553 34.6373 48.8714C34.7484 48.7874 34.8767 48.7292 35.013 48.7009C35.1494 48.6727 35.2903 48.6751 35.4256 48.708C35.5609 48.7408 35.6871 48.8034 35.7953 48.8911C37.4914 50.2388 39.5981 50.9647 41.7643 50.9476C46.5963 50.9476 50.5284 47.5333 50.5284 43.3359C50.5284 39.1452 46.5804 35.7358 41.7264 35.7358C40.2583 35.7264 38.8078 36.0568 37.4886 36.7011C37.3455 36.7727 37.1864 36.8065 37.0265 36.7993C36.8666 36.7922 36.7112 36.7442 36.5751 36.66C36.439 36.5758 36.3267 36.4583 36.2488 36.3184C36.1709 36.1786 36.1301 36.0212 36.1302 35.8611V14.3244C36.1708 11.5371 35.1674 8.83534 33.3172 6.75024C31.4669 4.66514 28.9037 3.34751 26.1313 3.05633C24.3215 2.91091 22.5043 3.2222 20.8461 3.96166C19.188 4.70112 17.742 5.84507 16.6409 7.2886C16.5496 7.39676 16.4357 7.4837 16.3073 7.54332C16.179 7.60295 16.0391 7.63385 15.8975 7.63385C15.756 7.63385 15.6161 7.60295 15.4877 7.54332C15.3593 7.4837 15.2455 7.39676 15.1541 7.2886C13.7042 5.4088 11.6862 4.0473 9.40028 3.40662C9.17307 3.34247 8.934 3.33234 8.70217 3.37702C8.47034 3.42171 8.25217 3.51999 8.06507 3.664C7.87981 3.80388 7.72966 3.98499 7.62652 4.19296C7.52338 4.40094 7.47009 4.63007 7.47086 4.86222C7.46578 5.22287 7.58108 5.57492 7.79854 5.86269C8.01599 6.15045 8.32319 6.35749 8.67153 6.45107C10.2855 6.9209 11.7042 7.90037 12.7155 9.24312C13.7268 10.5859 14.2764 12.2198 14.2824 13.9008V36.6877C14.2835 37.1153 14.4542 37.525 14.757 37.8269C15.0597 38.1289 15.4699 38.2984 15.8975 38.2984C16.3251 38.2984 16.7353 38.1289 17.038 37.8269C17.3408 37.525 17.5115 37.1153 17.5127 36.6877V13.9008C17.5136 11.8448 18.3312 9.87334 19.7855 8.42009C21.2399 6.96685 23.212 6.15083 25.268 6.15152H25.2681ZM41.7643 47.8176C38.6576 47.8176 36.1303 45.807 36.1303 43.3359C36.1674 42.6433 36.3726 41.9702 36.7281 41.3747C37.0837 40.7792 37.5789 40.2792 38.1709 39.918C39.2239 39.2188 40.4626 38.8523 41.7265 38.8659C44.8186 38.8659 47.3984 40.9126 47.3984 43.3359C47.3984 45.807 44.8711 47.8176 41.7643 47.8176Z" fill="white"/>
</svg>
