<svg width="58" height="58" viewBox="0 0 58 58" fill="none" xmlns="http://www.w3.org/2000/svg">
<path d="M32.2236 6.14863C32.6497 6.14887 33.0754 6.17336 33.4987 6.22199C35.0298 6.39964 36.5051 6.90332 37.8251 7.69912C39.1452 8.49492 40.2794 9.56435 41.1513 10.8354C42.0233 12.1064 42.6127 13.5496 42.88 15.0676C43.1472 16.5856 43.086 18.1433 42.7006 19.6357L34.39 43.1853C33.6861 45.1419 33.6904 47.2834 34.4022 49.2372C35.114 51.191 36.4882 52.8334 38.2858 53.8787C39.4367 54.5039 40.7093 54.8725 42.0162 54.9592C43.3231 55.0458 44.6333 54.8485 45.8567 54.3807C47.08 53.9128 48.1876 53.1857 49.1032 52.2492C50.0189 51.3126 50.7209 50.1889 51.1609 48.9553C51.2455 48.7253 51.2723 48.4781 51.239 48.2353C51.2058 47.9925 51.1135 47.7616 50.9702 47.5628C50.8154 47.3405 50.6093 47.1589 50.3693 47.0333C50.1293 46.9077 49.8626 46.8419 49.5917 46.8414C49.2812 46.8542 48.9824 46.9637 48.7371 47.1547C48.4918 47.3456 48.3123 47.6084 48.2237 47.9063C47.8051 49.0581 47.0433 50.0537 46.041 50.7588C45.0387 51.4639 43.8441 51.8445 42.6187 51.8492C41.6274 51.8536 40.651 51.608 39.7798 51.1352C38.6286 50.4457 37.7553 49.3748 37.3115 48.1085C36.8677 46.8421 36.8815 45.4603 37.3505 44.2031C45.6684 20.6265 45.6684 20.6265 45.6782 20.6027C46.2224 18.7848 46.3437 16.8666 46.0328 14.9947C45.5393 11.5069 43.7418 8.33598 41.0027 6.12116C38.2636 3.90634 34.7867 2.81237 31.2729 3.0598C27.7591 3.30723 24.4698 4.87766 22.0681 7.45447C19.6665 10.0313 18.3311 13.4228 18.3312 16.9453C18.3303 18.1359 18.484 19.3215 18.7885 20.4724L20.0569 24.1103C20.1125 24.2702 20.1239 24.4421 20.0898 24.6079C20.0557 24.7737 19.9774 24.9272 19.8632 25.0522C19.749 25.1772 19.6032 25.2689 19.4411 25.3178C19.279 25.3667 19.1068 25.3708 18.9425 25.3298C18.1976 25.1468 17.4331 25.0555 16.666 25.0578C15.3432 25.0598 14.034 25.3261 12.8155 25.8409C11.5969 26.3557 10.4935 27.1088 9.56986 28.0558C8.64627 29.0029 7.92115 30.1249 7.43706 31.356C6.95296 32.5871 6.71965 33.9025 6.7508 35.225C6.77373 35.9138 6.86548 36.5986 7.02467 37.2692C7.37749 38.6485 8.02017 39.9368 8.90991 41.0484C9.79964 42.1599 10.916 43.069 12.1846 43.7153C13.4049 44.3635 14.7492 44.7443 16.1281 44.8324C17.507 44.9206 18.8888 44.7139 20.1816 44.2263C22.5639 43.2295 24.4821 41.3703 25.5529 39.0203C26.6237 36.6704 26.768 34.0029 25.9572 31.5511L21.8138 19.6577C21.5809 18.7723 21.4624 17.8608 21.4611 16.9454C21.4644 15.4263 21.787 13.9249 22.4079 12.5385C23.0288 11.1521 23.9342 9.91165 25.0653 8.89764C27.0273 7.12427 29.5789 6.14436 32.2236 6.14863ZM16.666 41.7463C15.3247 41.7475 14.0132 41.3508 12.8974 40.6063C11.7816 39.8619 10.9117 38.8032 10.3979 37.5642C9.88399 36.3251 9.74922 34.9616 10.0106 33.6459C10.272 32.3303 10.9178 31.1218 11.8663 30.1733C12.8147 29.2249 14.0232 28.5791 15.3389 28.3177C16.6545 28.0563 18.0181 28.1911 19.2571 28.7049C20.4961 29.2188 21.5548 30.0887 22.2993 31.2045C23.0437 32.3202 23.4404 33.6318 23.4392 34.9731C23.4357 36.7684 22.7209 38.4891 21.4515 39.7586C20.182 41.028 18.4613 41.7427 16.666 41.7463Z" fill="white"/>
</svg>
