<svg width="58" height="58" viewBox="0 0 58 58" fill="none" xmlns="http://www.w3.org/2000/svg">
<path d="M45.2275 54.6577H45.2269C45.0553 54.7876 44.8589 54.881 44.6499 54.9322C44.4409 54.9833 44.2236 54.9912 44.0114 54.9552C43.7992 54.9192 43.5967 54.8402 43.4162 54.723C43.2357 54.6058 43.0811 54.4529 42.9619 54.2738C38.3956 47.4947 35.7437 39.6088 35.2861 31.4481C35.272 31.209 35.1672 30.9844 34.993 30.8201C34.8188 30.6557 34.5884 30.5642 34.3489 30.5641H23.6519C23.4125 30.5642 23.1821 30.6558 23.0079 30.8201C22.8337 30.9844 22.7288 31.209 22.7148 31.4481C22.2571 39.6088 19.6053 47.4947 15.039 54.2738C14.9265 54.4459 14.7813 54.5941 14.6115 54.71C14.4417 54.826 14.2508 54.9074 14.0496 54.9495C13.8484 54.9917 13.6408 54.9938 13.4388 54.9557C13.2368 54.9177 13.0442 54.8402 12.8721 54.7277C12.7 54.6153 12.5518 54.47 12.4358 54.3002C12.3199 54.1305 12.2385 53.9395 12.1964 53.7383C12.1542 53.5371 12.1521 53.3295 12.1901 53.1275C12.2282 52.9255 12.3057 52.7329 12.4181 52.5608C16.6253 46.3223 19.0915 39.0741 19.5621 31.5643C19.5705 31.4361 19.5524 31.3075 19.5091 31.1866C19.4657 31.0657 19.3981 30.9549 19.3102 30.8612C19.2224 30.7674 19.1163 30.6927 18.9984 30.6416C18.8805 30.5905 18.7534 30.5642 18.625 30.5641H14.7774C14.3623 30.5641 13.9642 30.3993 13.6707 30.1058C13.3772 29.8123 13.2124 29.4142 13.2124 28.9991C13.2124 28.5841 13.3772 28.186 13.6707 27.8925C13.9642 27.599 14.3623 27.4341 14.7774 27.4341H18.6623C18.7893 27.4341 18.915 27.4082 19.0317 27.3582C19.1484 27.3082 19.2538 27.2351 19.3414 27.1432C19.4291 27.0513 19.4972 26.9426 19.5417 26.8237C19.5861 26.7047 19.606 26.578 19.6001 26.4511C19.2827 18.9775 17.0056 11.7188 12.9972 5.40317C12.7817 5.05012 12.7148 4.62615 12.811 4.2239C12.9071 3.82165 13.1586 3.47381 13.5104 3.25638C13.8623 3.03895 14.2858 2.96961 14.6886 3.06351C15.0914 3.1574 15.4407 3.4069 15.6601 3.75749C20.0011 10.5878 22.4527 18.4472 22.7649 26.5342C22.7753 26.7762 22.8786 27.0049 23.0534 27.1726C23.2282 27.3403 23.461 27.434 23.7033 27.4341H34.2976C34.5398 27.434 34.7726 27.3403 34.9475 27.1726C35.1223 27.0049 35.2257 26.7763 35.236 26.5342C35.5481 18.4472 37.9997 10.5877 42.3408 3.75748C42.4487 3.58239 42.5901 3.43029 42.7569 3.30988C42.9236 3.18948 43.1125 3.10312 43.3127 3.05575C43.5128 3.00838 43.7203 3.00092 43.9234 3.03381C44.1264 3.0667 44.321 3.13928 44.496 3.24741C44.6709 3.35554 44.8229 3.4971 44.9431 3.66399C45.0633 3.83088 45.1495 4.01984 45.1966 4.22005C45.2438 4.42026 45.251 4.6278 45.2179 4.8308C45.1848 5.03381 45.112 5.2283 45.0037 5.40315C40.9953 11.7188 38.7182 18.9775 38.4008 26.4511C38.3949 26.578 38.4148 26.7047 38.4592 26.8236C38.5037 26.9426 38.5718 27.0513 38.6595 27.1432C38.7471 27.2351 38.8525 27.3082 38.9692 27.3582C39.086 27.4082 39.2116 27.4341 39.3386 27.4341H43.2235C43.6386 27.4341 44.0366 27.599 44.3301 27.8925C44.6236 28.186 44.7885 28.5841 44.7885 28.9991C44.7885 29.4142 44.6236 29.8123 44.3301 30.1057C44.0366 30.3992 43.6386 30.5641 43.2235 30.5641H39.3758C39.2474 30.5641 39.1203 30.5905 39.0024 30.6416C38.8846 30.6927 38.7784 30.7674 38.6906 30.8612C38.6028 30.9549 38.5351 31.0657 38.4918 31.1866C38.4484 31.3075 38.4304 31.4361 38.4387 31.5642C38.9094 39.0741 41.3755 46.3223 45.5826 52.5608C45.801 52.89 45.8858 53.29 45.8198 53.6795C45.7538 54.069 45.542 54.4188 45.2275 54.6577Z" fill="white"/>
</svg>
