<svg width="58" height="58" viewBox="0 0 58 58" fill="none" xmlns="http://www.w3.org/2000/svg">
<path d="M15.821 24.7729C15.5113 24.7728 15.2086 24.8646 14.9511 25.0366C14.6936 25.2086 14.4929 25.4531 14.3744 25.7392C14.256 26.0253 14.225 26.3401 14.2855 26.6438C14.3459 26.9475 14.4951 27.2264 14.7142 27.4453L20.8564 33.5875C20.9436 33.6747 21.0128 33.7783 21.0601 33.8922C21.1073 34.0062 21.1316 34.1283 21.1316 34.2517C21.1316 34.375 21.1073 34.4971 21.0601 34.6111C21.0128 34.725 20.9436 34.8286 20.8564 34.9158L3.55487 52.2209C3.27095 52.4843 3.08858 52.8391 3.03962 53.2232C2.99067 53.6074 3.07823 53.9966 3.28702 54.3228C3.4188 54.5092 3.58969 54.6646 3.78775 54.7781C3.98581 54.8917 4.20627 54.9606 4.43374 54.9801C4.6612 54.9996 4.89018 54.9692 5.10469 54.8911C5.31919 54.8129 5.51405 54.6889 5.67565 54.5276L23.0713 37.1301C23.2508 36.9605 23.4885 36.866 23.7354 36.866C23.9824 36.866 24.2201 36.9605 24.3996 37.1301L30.5442 43.2754C30.8379 43.569 31.2361 43.7339 31.6513 43.7338C32.0666 43.7338 32.4648 43.5688 32.7583 43.2752C33.0519 42.9815 33.2168 42.5833 33.2167 42.1681C33.2167 41.7528 33.0517 41.3546 32.758 41.0611L26.6133 34.9158C26.5261 34.8286 26.4569 34.725 26.4097 34.6111C26.3625 34.4971 26.3382 34.375 26.3382 34.2517C26.3382 34.1283 26.3625 34.0062 26.4097 33.8922C26.4569 33.7783 26.5261 33.6747 26.6133 33.5875L50.2344 9.96218C50.3657 9.83083 50.533 9.74136 50.7152 9.70508C50.8973 9.6688 51.0861 9.68734 51.2577 9.75836C51.4294 9.82937 51.5761 9.94967 51.6793 10.1041C51.7826 10.2584 51.8377 10.44 51.8378 10.6257L51.8415 18.8484C51.8273 19.2361 51.9495 19.6166 52.1868 19.9235C52.4242 20.2304 52.7616 20.4444 53.1404 20.5283C53.366 20.5674 53.5973 20.5567 53.8183 20.497C54.0393 20.4372 54.2445 20.3299 54.4197 20.1825C54.5948 20.0351 54.7356 19.8512 54.8321 19.6437C54.9287 19.4361 54.9787 19.21 54.9787 18.9811L54.9726 3.24086C54.9726 3.18008 54.9486 3.12176 54.9057 3.07866C54.8628 3.03556 54.8046 3.01121 54.7439 3.01092H39.1705C38.7832 2.99646 38.4031 3.11837 38.0965 3.3554C37.7899 3.59242 37.5761 3.92953 37.4925 4.30798C37.4533 4.53327 37.4638 4.76442 37.5233 4.98521C37.5829 5.20601 37.69 5.41111 37.8372 5.58614C37.9843 5.76117 38.168 5.90188 38.3753 5.99843C38.5826 6.09498 38.8085 6.14501 39.0372 6.14503H47.3553C47.5411 6.14485 47.7229 6.19983 47.8775 6.30301C48.0321 6.40619 48.1525 6.55293 48.2236 6.72464C48.2948 6.89635 48.3133 7.08531 48.277 7.26757C48.2406 7.44984 48.151 7.61721 48.0194 7.74849L24.3984 31.3732C24.2188 31.5428 23.9812 31.6374 23.7342 31.6374C23.4872 31.6374 23.2496 31.5428 23.0701 31.3732L16.9279 25.2309C16.7828 25.0853 16.6103 24.9698 16.4203 24.8911C16.2303 24.8125 16.0266 24.7723 15.821 24.7729Z" fill="white"/>
</svg>
