<svg width="58" height="58" viewBox="0 0 58 58" fill="none" xmlns="http://www.w3.org/2000/svg">
<path d="M25.3615 13.8388C26.3901 13.8363 27.3776 14.2423 28.1068 14.9677C28.8361 15.6931 29.2475 16.6783 29.2505 17.7069V36.5479C29.2532 38.9684 30.2159 41.2889 31.9275 43.0005C33.639 44.712 35.9596 45.6748 38.3801 45.6775H46.8033C46.9888 45.6776 47.1701 45.7327 47.3244 45.8358C47.4786 45.9389 47.5988 46.0854 47.6698 46.2568C47.7408 46.4281 47.7595 46.6167 47.7233 46.7987C47.6872 46.9807 47.598 47.1478 47.4669 47.2791L42.4499 52.3022C42.1569 52.5966 41.9925 52.9951 41.9927 53.4104C41.9929 53.8257 42.1578 54.224 42.4511 54.518C42.7499 54.8028 43.1469 54.9617 43.5597 54.9617C43.9724 54.9617 44.3694 54.8028 44.6682 54.518L54.9014 44.275C54.9442 44.2321 54.9683 44.174 54.9683 44.1134C54.9683 44.0527 54.9442 43.9946 54.9014 43.9517L44.689 33.7387C44.3953 33.4451 43.997 33.2801 43.5817 33.2801C43.1664 33.2801 42.7681 33.4451 42.4744 33.7387C42.1807 34.0324 42.0157 34.4307 42.0157 34.846C42.0157 35.2613 42.1807 35.6596 42.4744 35.9533L47.467 40.9464C47.5984 41.0776 47.688 41.2449 47.7243 41.427C47.7606 41.6091 47.7421 41.7979 47.671 41.9695C47.5999 42.1411 47.4795 42.2877 47.3251 42.3908C47.1706 42.4939 46.989 42.5489 46.8033 42.5487H38.3361C36.7567 42.547 35.2425 41.9187 34.1257 40.8018C33.0089 39.685 32.3808 38.1707 32.3793 36.5912V18.0326C32.3724 17.0453 32.1709 16.0689 31.7866 15.1595C31.4022 14.25 30.8423 13.4251 30.139 12.7321C28.8813 11.4534 27.1673 10.7265 25.3738 10.7112C25.3493 10.7112 25.3249 10.7112 25.3017 10.7118C23.5384 10.7252 21.8476 11.4149 20.578 12.6386C20.4031 12.8073 20.1696 12.9017 19.9266 12.9017C19.6836 12.9017 19.45 12.8073 19.2752 12.6386C18.301 11.7216 17.0858 11.1011 15.7718 10.8496C14.4578 10.598 13.0993 10.726 11.8554 11.2184C11.7191 11.2736 11.5717 11.296 11.4251 11.2838C11.2785 11.2715 11.1369 11.225 11.0116 11.1479C10.8864 11.0708 10.781 10.9653 10.704 10.84C10.627 10.7147 10.5806 10.573 10.5684 10.4265C10.4306 8.81288 9.83864 7.27132 8.861 5.98026C7.88335 4.6892 6.56003 3.70144 5.04424 3.13133C4.8095 3.04951 4.55823 3.02668 4.31259 3.06484C4.06694 3.10301 3.83444 3.20099 3.63558 3.35017C3.43672 3.49934 3.2776 3.69513 3.17222 3.92029C3.06685 4.14545 3.01847 4.39306 3.03133 4.64132C3.04188 4.97139 3.15117 5.29071 3.34506 5.55804C3.53896 5.82536 3.80856 6.0284 4.11903 6.14093C5.11047 6.54233 5.95886 7.23166 6.55469 8.11995C7.15052 9.00824 7.46644 10.0547 7.46169 11.1243V39.8111C7.45231 40.2187 7.59466 40.6154 7.86112 40.9241C8.12758 41.2327 8.49918 41.4315 8.90385 41.4817C9.11905 41.4987 9.33542 41.4709 9.53936 41.4002C9.74329 41.3294 9.93036 41.2172 10.0888 41.0706C10.2472 40.924 10.3736 40.7462 10.4599 40.5483C10.5463 40.3505 10.5907 40.1369 10.5904 39.921V17.878C10.5762 16.8946 10.9254 15.9405 11.5711 15.1987C12.2168 14.4568 13.1135 13.9793 14.0895 13.8577C14.626 13.8038 15.1678 13.8637 15.6795 14.0334C16.1913 14.2032 16.6615 14.479 17.0594 14.8428C17.4576 15.2061 17.7758 15.6485 17.9936 16.1416C18.2114 16.6347 18.324 17.1678 18.3243 17.7069V39.9211C18.3308 40.3383 18.5012 40.7363 18.7985 41.029C19.0959 41.3218 19.4965 41.4859 19.9138 41.4859C20.3311 41.4859 20.7316 41.3218 21.029 41.029C21.3264 40.7363 21.4967 40.3383 21.5032 39.9211V17.8823C21.492 16.9042 21.8382 15.9556 22.4768 15.2147C23.1155 14.4737 24.0026 13.9914 24.9717 13.8583C25.1012 13.8451 25.2313 13.8386 25.3615 13.8388Z" fill="white"/>
</svg>
