<svg width="58" height="58" viewBox="0 0 58 58" fill="none" xmlns="http://www.w3.org/2000/svg">
<path d="M11.1757 3.02181C10.9514 3.01952 10.7292 3.06614 10.5247 3.15841C10.3202 3.25068 10.1383 3.38639 9.99154 3.55611C9.84159 3.73036 9.73077 3.93474 9.66655 4.15547C9.60232 4.3762 9.58619 4.60813 9.61924 4.83563C10.1164 8.3854 11.5825 11.7294 13.8566 14.5001C16.1306 17.2708 19.1245 19.3609 22.5092 20.5408C22.6889 20.604 22.8451 20.7203 22.9572 20.8744C23.0692 21.0284 23.1317 21.2129 23.1364 21.4034C23.1411 21.5938 23.0878 21.7812 22.9835 21.9406C22.8793 22.1 22.729 22.2239 22.5526 22.2959C19.4213 23.5681 16.7435 25.7502 14.8656 28.5604C12.9876 31.3705 11.9957 34.6793 12.0181 38.0591C12.0784 42.3888 13.7723 46.5358 16.7604 49.6697C19.7485 52.8035 23.8103 54.6927 28.1322 54.9589C32.1341 55.1626 36.079 53.9442 39.269 51.5194C42.4591 49.0946 44.6887 45.6197 45.5633 41.7093C46.438 37.7989 45.9014 33.7052 44.0484 30.1524C42.1954 26.5995 39.1455 23.8166 35.4383 22.296C35.2619 22.224 35.1116 22.1 35.0073 21.9406C34.9031 21.7812 34.8497 21.5939 34.8545 21.4034C34.8592 21.213 34.9217 21.0285 35.0337 20.8744C35.1457 20.7204 35.302 20.604 35.4817 20.5408C38.8633 19.3334 41.8516 17.2263 44.1245 14.4464C46.3975 11.6666 47.8691 8.31945 48.3808 4.76533C48.4126 4.54435 48.3966 4.31914 48.3339 4.10486C48.2713 3.89059 48.1635 3.69223 48.0177 3.52316C47.8812 3.36467 47.7118 3.23775 47.5214 3.15119C47.331 3.06464 47.124 3.02051 46.9148 3.02187C46.5329 3.00101 46.1565 3.12023 45.8562 3.35716C45.5559 3.59409 45.3524 3.93244 45.2838 4.30874C44.7454 8.24653 42.7987 11.856 39.804 14.469C36.8093 17.082 32.9694 18.5216 28.9949 18.5215C25.0205 18.5213 21.1807 17.0814 18.1862 14.4682C15.1917 11.8549 13.2452 8.24536 12.7071 4.30754C12.6719 3.9602 12.5109 3.63774 12.2543 3.40092C11.9978 3.1641 11.6635 3.02928 11.3145 3.02187L11.1757 3.02181ZM28.9954 51.8502C26.2567 51.8502 23.5795 51.0381 21.3023 49.5165C19.0251 47.9949 17.2503 45.8323 16.2022 43.302C15.1541 40.7717 14.8799 37.9875 15.4142 35.3014C15.9485 32.6153 17.2673 30.1479 19.2039 28.2113C21.1405 26.2748 23.6078 24.9559 26.294 24.4216C28.9801 23.8873 31.7643 24.1616 34.2946 25.2096C36.8248 26.2577 38.9875 28.0325 40.5091 30.3097C42.0306 32.5869 42.8427 35.2641 42.8427 38.0029C42.8386 41.6741 41.3784 45.1939 38.7824 47.7899C36.1864 50.3858 32.6667 51.8461 28.9954 51.8502Z" fill="white"/>
</svg>
