<svg width="58" height="58" viewBox="0 0 58 58" fill="none" xmlns="http://www.w3.org/2000/svg">
<path d="M47.5667 51.8986L47.5581 51.895C47.068 51.6963 46.5645 51.4708 46.0341 51.1928C45.8349 51.0956 45.7127 51.0339 45.5978 50.9648C45.4592 50.8812 45.3446 50.7631 45.2652 50.6221C45.1857 50.481 45.1441 50.3218 45.1443 50.16C45.1446 49.9981 45.1867 49.8391 45.2666 49.6983C45.3464 49.5575 45.4614 49.4398 45.6002 49.3565C46.6872 48.6947 47.6058 47.7898 48.2841 46.7129C49.2295 45.1672 49.724 43.388 49.7116 41.5761C49.7116 36.7455 46.298 32.8155 42.1023 32.8155C41.0239 32.8156 39.9619 33.0796 39.0089 33.5843C38.8659 33.6592 38.7059 33.696 38.5445 33.691C38.3831 33.6859 38.2257 33.6394 38.0876 33.5557C37.9495 33.4721 37.8353 33.3543 37.756 33.2136C37.6768 33.0729 37.6352 32.9141 37.6352 32.7526V18.0223C37.6196 16.0358 36.8186 14.1362 35.4072 12.7383C34.7798 12.0968 34.0311 11.5863 33.2046 11.2367C32.3782 10.887 31.4905 10.7051 30.5931 10.7015C28.8175 10.7058 27.1122 11.3963 25.8339 12.6288C25.659 12.7975 25.4254 12.8917 25.1824 12.8916C24.9394 12.8915 24.7059 12.797 24.5311 12.6282C23.5566 11.7121 22.3417 11.0921 21.0281 10.8406C19.7144 10.5892 18.3564 10.7166 17.1125 11.208C16.9761 11.2635 16.8286 11.2861 16.682 11.274C16.5353 11.2619 16.3935 11.2155 16.2681 11.1384C16.1427 11.0614 16.0371 10.9559 15.9601 10.8305C15.883 10.7051 15.8365 10.5633 15.8244 10.4166C15.6866 8.80295 15.0947 7.26126 14.117 5.97008C13.1393 4.67891 11.8159 3.69104 10.3 3.12087C10.0653 3.03945 9.81405 3.01694 9.56852 3.05531C9.32299 3.09367 9.09063 3.19175 8.89186 3.34091C8.6931 3.49008 8.534 3.68578 8.42855 3.91081C8.32311 4.13584 8.27453 4.38332 8.2871 4.63152C8.29765 4.96159 8.40694 5.28092 8.60083 5.54825C8.79473 5.81557 9.06433 6.01862 9.3748 6.13116C10.3663 6.53228 11.2148 7.22146 11.8106 8.10968C12.4065 8.9979 12.7223 10.0444 12.7174 11.1139V39.9115C12.7178 40.3263 12.8828 40.724 13.1761 41.0173C13.4694 41.3106 13.8671 41.4756 14.2818 41.476C14.4871 41.4784 14.6908 41.4394 14.8806 41.3612C15.0705 41.2831 15.2426 41.1675 15.3867 41.0213C15.5331 40.8761 15.6492 40.7031 15.7281 40.5126C15.8069 40.3221 15.8471 40.1178 15.8463 39.9115V17.8598C15.8314 16.8755 16.1816 15.9206 16.8294 15.1794C17.4772 14.4382 18.3765 13.9632 19.3539 13.8462C19.8896 13.792 20.4306 13.8521 20.9413 14.0225C21.452 14.1929 21.9207 14.4698 22.3165 14.8349C22.7142 15.1982 23.0319 15.6403 23.2495 16.1331C23.4671 16.6259 23.5797 17.1585 23.5802 17.6972V39.9115C23.5867 40.3288 23.757 40.7268 24.0544 41.0195C24.3518 41.3123 24.7523 41.4764 25.1696 41.4764C25.5869 41.4764 25.9875 41.3123 26.2849 41.0195C26.5823 40.7268 26.7526 40.3288 26.7591 39.9115V17.8726C26.7477 16.8946 27.0937 15.946 27.7321 15.205C28.3705 14.4639 29.2574 13.9814 30.2264 13.8479C30.7659 13.7922 31.3111 13.8502 31.8268 14.0181C32.3425 14.1861 32.8173 14.4602 33.2205 14.8229C33.6238 15.1855 33.9466 15.6287 34.1681 16.1238C34.3896 16.6189 34.5048 17.1548 34.5065 17.6972V41.6134C34.4879 43.4012 34.9793 45.1572 35.923 46.6757C35.9723 46.7363 36.0149 46.8021 36.0501 46.8718C36.7055 47.9095 37.5 48.8524 38.4113 49.6743C38.5212 49.7766 38.605 49.9038 38.6556 50.0451C38.7062 50.1865 38.7222 50.3379 38.7022 50.4867C38.6822 50.6355 38.6268 50.7773 38.5407 50.9003C38.4546 51.0232 38.3402 51.1238 38.2072 51.1934C37.664 51.4777 37.1049 51.7307 36.5328 51.9512C36.2208 52.0687 35.956 52.2855 35.7793 52.5684C35.6026 52.8512 35.5238 53.1842 35.5551 53.5162C35.5722 53.7613 35.6467 53.999 35.7726 54.2101C35.8985 54.4211 36.0723 54.5996 36.2799 54.731C36.474 54.8576 36.6952 54.9367 36.9255 54.9619C37.1559 54.9872 37.389 54.9579 37.6059 54.8765C39.005 54.3339 40.3514 53.6642 41.6281 52.8758C41.7758 52.7854 41.9456 52.7378 42.1187 52.7385C42.2918 52.7392 42.4613 52.788 42.6083 52.8795C43.8828 53.6731 45.231 54.3417 46.6341 54.8759C46.8677 54.9534 47.1162 54.9746 47.3595 54.9377C47.6028 54.9008 47.8339 54.8069 48.034 54.6636C48.2341 54.5204 48.3975 54.3319 48.5108 54.1135C48.6241 53.8951 48.6842 53.6529 48.6862 53.4069C48.6698 53.0729 48.5546 52.7513 48.3554 52.4828C48.1561 52.2143 47.8816 52.011 47.5667 51.8986ZM42.1023 47.2078C41.4676 47.1869 40.8464 47.0188 40.2877 46.7168C39.7291 46.4148 39.2482 45.9871 38.8831 45.4675C38.8079 45.3743 38.742 45.274 38.6863 45.168C37.9877 44.1152 37.6215 42.8768 37.6353 41.6133C37.6353 38.523 39.6812 35.9442 42.1023 35.9442C44.5723 35.9442 46.5828 38.4705 46.5828 41.576C46.5828 44.6815 44.5723 47.2079 42.1023 47.2079V47.2078Z" fill="white"/>
</svg>
